<?xml version="1.0" standalone="no"?>
<!DOCTYPE svg PUBLIC "-//W3C//DTD SVG 20010904//EN"
 "http://www.w3.org/TR/2001/REC-SVG-20010904/DTD/svg10.dtd">
<svg version="1.0" xmlns="http://www.w3.org/2000/svg"
 width="1168.000000pt" height="650.000000pt" viewBox="0 0 1168.000000 650.000000"
 preserveAspectRatio="xMidYMid meet">
<metadata>
Created by potrace 1.15, written by Peter Selinger 2001-2017
</metadata>
<g transform="translate(0.000000,650.000000) scale(0.100000,-0.100000)"
fill="#000000" stroke="none">
<path d="M5927 6380 c-4 -19 -14 -80 -22 -135 -35 -232 -100 -476 -166 -628
-129 -295 -327 -412 -564 -332 -132 44 -233 109 -405 259 -103 91 -260 260
-380 411 -40 50 -77 95 -82 100 -20 20 89 -154 197 -316 327 -487 585 -765
811 -871 58 -27 81 -32 144 -33 64 0 82 4 122 27 127 75 214 247 272 538 41
208 76 553 76 757 0 139 11 68 21 -138 16 -349 59 -631 125 -828 44 -132 86
-212 144 -271 65 -66 109 -85 200 -84 65 0 85 5 150 37 96 47 172 104 289 220
186 184 395 458 625 822 113 178 123 188 46 45 -250 -466 -391 -825 -407
-1035 -7 -97 7 -153 48 -200 41 -46 85 -59 184 -53 215 14 582 195 1103 545
189 127 562 391 562 398 0 2 -59 -32 -131 -76 -429 -261 -785 -426 -1019 -474
-112 -23 -238 -17 -297 13 -160 83 -177 313 -51 712 27 84 122 328 148 380 24
47 41 90 36 90 -2 0 -18 -22 -35 -49 -17 -26 -40 -56 -51 -66 -22 -20 -27 -40
-7 -29 7 4 9 3 4 -2 -5 -5 -12 -9 -17 -9 -4 0 -51 -54 -104 -120 -349 -432
-623 -661 -855 -715 -229 -53 -419 88 -542 405 -70 178 -140 484 -162 710 l-3
30 -7 -35z"/>
<path d="M4160 6247 c0 -2 24 -59 54 -128 108 -251 187 -512 204 -672 23 -208
-30 -334 -160 -382 -61 -23 -218 -16 -331 14 -119 31 -315 112 -497 205 -141
71 -220 115 -480 269 -100 58 128 -107 420 -305 791 -536 1246 -699 1358 -488
22 41 23 54 19 155 -9 231 -139 560 -444 1119 -69 125 -143 236 -143 213z"/>
<path d="M2573 5786 c74 -59 370 -344 464 -446 283 -307 390 -509 321 -609
-58 -85 -205 -109 -465 -76 -207 27 -513 97 -810 186 -207 62 -196 50 32 -34
299 -110 374 -136 600 -211 832 -273 1235 -314 1235 -125 0 42 -48 139 -112
224 -159 214 -813 798 -1143 1019 -101 68 -160 103 -122 72z"/>
<path d="M9206 5739 c-255 -174 -856 -691 -1045 -898 -158 -175 -219 -269
-230 -356 l-6 -50 -160 -12 c-246 -18 -496 -48 -523 -62 -11 -6 -32 -35 -48
-66 -31 -59 -44 -69 -44 -32 0 44 -23 101 -51 130 -29 28 -33 29 -99 25 -79
-6 -108 -23 -159 -92 -19 -25 -82 -85 -139 -133 -64 -54 -110 -101 -118 -120
-18 -43 -18 -135 2 -278 9 -64 12 -120 8 -124 -14 -12 -94 -32 -103 -27 -8 5
-16 63 -26 201 -12 151 -28 261 -41 294 -16 38 -75 107 -113 133 -15 10 -45
18 -69 18 -43 0 -47 -3 -149 -110 l-105 -110 -29 25 c-34 28 -86 40 -126 30
-18 -4 -99 -77 -223 -201 -153 -153 -196 -190 -201 -176 -3 9 -9 51 -13 92 -9
89 -46 214 -80 268 -45 71 -122 83 -210 33 -38 -21 -161 -208 -181 -273 -10
-35 -15 -94 -15 -180 0 -122 -9 -154 -24 -92 -18 69 -194 260 -285 308 -145
77 -280 74 -448 -9 -180 -89 -357 -328 -426 -575 -12 -44 -24 -80 -27 -80 -3
0 -23 35 -44 78 -93 191 -268 491 -329 565 -21 27 -38 49 -36 50 2 2 21 10 41
20 71 32 64 96 -20 177 -166 161 -711 445 -1442 752 -91 38 -174 73 -185 78
-24 12 -341 120 -350 120 -4 0 137 -72 312 -159 513 -257 754 -404 899 -546
182 -178 121 -267 -208 -306 -140 -16 -540 -6 -842 21 -131 11 -243 19 -249
17 -5 -1 60 -13 144 -26 766 -117 1156 -161 1501 -168 l257 -6 -88 -86 c-67
-65 -92 -97 -102 -129 -6 -23 -17 -42 -23 -42 -7 0 -50 16 -96 35 -46 19 -90
35 -98 35 -7 0 -20 17 -28 38 -28 70 -39 85 -74 100 -46 19 -132 9 -173 -20
l-31 -22 -85 23 c-255 68 -730 174 -1148 256 -202 40 -628 106 -672 104 -9 0
76 -22 189 -48 811 -191 1345 -368 1485 -494 l40 -36 -42 -38 c-43 -38 -63
-76 -63 -117 0 -18 -10 -25 -53 -39 -30 -9 -56 -17 -59 -17 -3 0 -8 28 -11 63
-10 101 -23 132 -85 196 -59 62 -104 81 -154 66 -12 -4 -89 -73 -169 -155
-149 -150 -159 -166 -159 -240 0 -37 19 -34 -440 -74 -25 -2 66 -3 202 -2 231
2 248 1 248 -15 0 -17 -22 -17 -382 -12 -423 6 -906 -5 -763 -18 44 -4 186
-13 315 -19 250 -12 820 -57 829 -65 3 -3 8 -83 12 -178 4 -95 12 -237 18
-316 6 -80 9 -146 8 -146 -4 -3 -271 -74 -320 -86 -26 -6 -46 -14 -43 -16 2
-2 86 12 185 33 100 20 184 34 187 31 13 -13 -8 -25 -53 -31 -209 -30 -621
-105 -773 -142 -102 -24 -167 -42 -145 -39 353 45 611 77 700 86 302 30 285
32 285 -28 0 -42 36 -268 56 -358 22 -94 69 -189 110 -220 26 -20 44 -25 87
-25 50 0 66 6 168 66 185 110 187 114 170 364 -7 96 -14 192 -16 213 l-3 38
96 -3 97 -3 8 -90 c8 -90 33 -294 43 -350 5 -32 -5 -41 -121 -105 -22 -12 -74
-42 -116 -65 -41 -24 -115 -64 -165 -90 -152 -81 -177 -97 -165 -105 7 -4 -25
-21 -76 -40 -90 -33 -361 -156 -377 -170 -5 -5 34 7 85 26 86 31 179 61 584
189 245 77 527 147 800 197 93 17 158 22 290 22 156 1 173 -1 211 -21 60 -32
94 -76 94 -122 0 -85 -67 -217 -184 -366 -63 -80 -426 -460 -471 -493 -16 -13
-61 -52 -100 -88 l-70 -65 120 79 c732 481 1275 719 1536 673 281 -51 284
-390 9 -1051 -28 -69 -54 -132 -57 -140 -3 -8 14 12 38 45 315 435 641 761
874 875 84 41 185 70 247 70 20 0 64 -9 97 -19 229 -71 389 -382 476 -921 37
-234 36 -231 56 -85 53 377 153 684 272 840 79 103 183 170 285 182 63 7 177
-18 260 -57 229 -108 523 -394 846 -822 49 -65 90 -118 92 -118 4 0 -72 158
-84 173 -19 25 -25 40 -14 33 6 -4 0 24 -15 61 -51 133 -113 336 -134 436 -30
149 -25 290 15 370 37 77 85 111 176 128 260 46 748 -167 1525 -665 l120 -77
-70 66 c-38 36 -98 88 -133 115 -35 27 -63 52 -64 57 0 4 -57 67 -127 138
-279 286 -412 482 -415 610 -1 67 21 100 90 135 200 100 826 -24 1813 -360 96
-33 171 -57 168 -54 -11 11 -264 126 -392 179 -361 148 -1036 384 -1367 479
-370 106 -657 149 -777 117 -242 -67 -1 -405 710 -997 86 -72 184 -152 218
-179 119 -93 52 -54 -130 76 -399 287 -769 519 -1024 645 -642 316 -822 142
-552 -536 51 -131 209 -459 296 -617 28 -51 49 -93 47 -93 -2 0 -39 55 -81
123 -391 618 -724 991 -972 1088 -77 30 -172 31 -229 2 -84 -44 -163 -151
-214 -291 -70 -192 -123 -526 -139 -876 -10 -200 -21 -273 -21 -133 0 300 -60
752 -126 952 -163 495 -456 494 -896 -5 -150 -169 -262 -321 -447 -601 -86
-130 -162 -245 -169 -255 -7 -11 12 28 43 86 226 426 357 733 400 937 17 79
19 202 5 253 -12 43 -62 93 -109 109 -152 50 -494 -83 -966 -377 -157 -98
-445 -292 -615 -415 -309 -223 -321 -230 -100 -52 428 345 687 584 860 792
133 161 172 272 115 329 -24 24 -25 28 -14 59 l12 33 56 -42 c177 -136 361
-177 549 -123 144 42 304 151 375 257 18 26 51 68 74 94 l42 47 10 -38 c5 -21
17 -67 26 -102 39 -154 71 -201 135 -201 25 0 80 27 80 40 0 24 62 51 121 53
56 2 63 5 94 39 38 41 52 83 63 187 l7 70 80 -70 c154 -136 202 -158 283 -134
27 8 67 31 90 51 l42 36 44 -49 c44 -48 44 -48 107 -48 62 0 68 3 185 74 154
94 160 101 157 241 0 58 -5 164 -10 235 -5 72 -6 134 -1 139 7 9 170 67 174
63 2 -2 26 -240 40 -382 7 -80 45 -239 67 -282 21 -40 97 -77 140 -68 47 10
94 50 127 108 17 29 55 79 85 111 30 33 55 63 55 68 0 4 10 14 23 22 20 14 27
13 77 -12 50 -24 65 -27 165 -27 191 1 396 66 570 182 56 37 65 40 65 18 0
-36 46 -133 77 -162 38 -36 65 -40 138 -22 63 16 115 65 195 186 90 134 131
215 133 263 1 22 6 35 12 32 5 -2 57 -55 115 -116 133 -141 143 -147 245 -145
56 1 92 -3 120 -15 99 -42 575 -166 925 -241 396 -84 599 -125 615 -124 6 0
-62 20 -150 44 -278 75 -433 127 -650 218 l-100 42 55 6 c73 8 157 33 211 63
100 56 213 175 279 293 18 32 34 59 35 61 9 12 547 57 850 72 132 6 278 15
325 19 143 12 -356 24 -775 19 -302 -4 -365 -3 -365 9 0 10 47 13 243 15 133
1 224 3 202 4 -138 11 -290 26 -355 35 l-76 11 4 92 c8 183 -31 344 -114 467
l-32 49 122 39 c120 38 750 198 874 222 120 23 52 20 -135 -5 -185 -25 -279
-42 -732 -132 -123 -25 -225 -43 -227 -41 -14 14 48 37 141 52 61 10 155 26
210 36 l100 18 -75 -5 c-312 -21 -314 -20 -271 30 28 32 21 131 -14 196 -41
75 -146 176 -241 232 -73 43 -228 98 -275 98 -11 0 -19 3 -19 8 0 11 258 148
540 286 140 69 252 126 249 126 -45 2 -653 -245 -984 -400 -166 -78 -296 -140
-377 -180 l-87 -44 -46 43 c-27 24 -40 43 -33 46 318 101 1076 373 1046 375
-4 0 -98 -27 -208 -61 -721 -216 -1164 -272 -1307 -163 -125 95 -13 329 325
678 112 116 275 273 377 364 39 34 68 62 65 62 -3 -1 -45 -28 -94 -61z m549
-1197 c6 -4 10 -18 10 -32 0 -29 30 -40 48 -16 10 12 15 13 29 3 9 -7 16 -21
15 -31 -3 -27 31 -45 46 -26 7 9 23 16 37 17 14 1 34 3 45 5 13 2 21 -4 23
-17 7 -36 23 -46 58 -39 27 5 34 3 34 -10 0 -13 -4 -15 -19 -7 -24 13 -57 -9
-48 -33 7 -18 38 -21 53 -6 16 16 43 2 37 -19 -3 -13 -11 -17 -29 -13 -30 6
-44 -23 -21 -46 15 -14 18 -14 35 1 24 22 52 13 45 -14 -3 -10 0 -26 7 -34 17
-21 5 -45 -21 -42 -12 1 -26 -6 -33 -16 -9 -15 -7 -21 8 -32 23 -18 12 -35
-22 -34 -15 0 -21 3 -14 6 17 7 15 42 -3 49 -8 4 -22 1 -30 -6 -12 -10 -12
-16 -3 -34 7 -11 11 -29 9 -39 -1 -10 3 -24 9 -32 7 -8 9 -19 5 -25 -11 -18
-25 -10 -25 15 0 29 -24 43 -44 26 -20 -17 -44 -3 -48 27 -3 30 -29 40 -49 19
-7 -7 -23 -12 -35 -9 -20 3 -21 7 -11 23 9 15 8 22 -5 35 -14 14 -20 15 -32 4
-20 -16 -20 -39 -1 -46 8 -4 12 -10 9 -15 -10 -16 -19 -10 -31 21 -6 17 -19
30 -28 30 -14 0 -15 3 -5 15 17 20 5 45 -20 45 -28 0 -36 -26 -16 -49 16 -18
12 -31 -10 -31 -7 0 -14 12 -16 27 -4 32 -35 44 -53 19 -10 -13 -15 -13 -30
-2 -24 17 -10 38 21 30 30 -8 44 20 21 43 -14 14 -18 14 -33 2 -10 -8 -29 -14
-43 -14 -30 0 -41 -30 -17 -48 13 -10 13 -15 2 -30 -17 -22 -50 -13 -37 11 12
24 3 42 -20 42 -26 0 -35 -27 -16 -48 20 -22 3 -47 -33 -47 -16 0 -26 -6 -28
-18 -4 -22 25 -34 48 -19 19 12 30 7 30 -14 0 -7 -12 -14 -27 -16 -22 -2 -28
-8 -28 -28 0 -29 26 -38 47 -16 8 8 20 11 27 7 15 -10 3 -41 -14 -35 -7 3 -20
-2 -29 -11 -13 -13 -14 -20 -5 -31 15 -18 33 -18 48 0 17 20 54 9 42 -12 -11
-20 4 -52 24 -52 8 0 20 9 27 19 16 26 46 8 40 -24 -5 -27 10 -39 38 -30 24 8
25 22 3 47 -15 17 -15 18 7 18 16 0 20 -4 16 -15 -3 -9 3 -23 13 -31 10 -9 17
-24 14 -33 -2 -10 3 -23 12 -31 13 -11 18 -11 31 2 14 14 10 48 -6 48 -4 0 -5
11 -2 25 4 24 6 25 22 10 10 -9 16 -24 13 -35 -7 -26 30 -45 47 -25 15 19 6
45 -16 45 -14 0 -14 3 -4 15 19 23 45 14 45 -15 0 -20 5 -25 25 -25 30 0 41
33 15 47 -13 8 -14 13 -4 24 15 18 29 9 29 -20 0 -12 5 -27 11 -33 12 -12 49
-6 49 9 0 6 9 8 19 5 11 -3 29 1 40 9 27 19 49 9 43 -21 -3 -17 1 -27 12 -31
9 -3 16 -17 16 -30 0 -28 24 -42 44 -25 13 11 46 5 46 -8 -1 -15 -17 -26 -40
-26 -16 0 -26 -6 -28 -18 -4 -22 25 -33 50 -18 24 15 38 6 38 -24 0 -13 5 -27
10 -30 6 -3 10 -19 10 -35 0 -16 7 -33 15 -37 9 -5 12 -17 8 -31 -4 -18 -8
-20 -19 -11 -19 16 -44 4 -44 -21 0 -28 26 -36 49 -16 16 15 20 15 31 1 10
-12 10 -16 -1 -19 -43 -13 -50 -17 -55 -31 -4 -8 0 -23 7 -32 8 -8 12 -26 11
-39 -2 -12 4 -26 12 -31 22 -12 10 -56 -13 -44 -9 5 -22 6 -28 4 -18 -7 -16
-50 2 -57 26 -9 -2 -44 -31 -38 -30 5 -43 -23 -21 -45 12 -12 13 -20 4 -34 -9
-14 -8 -22 5 -36 11 -12 14 -24 9 -32 -12 -19 -30 -5 -24 17 6 26 -22 48 -42
32 -19 -16 -19 -25 -1 -43 19 -19 10 -63 -10 -47 -9 8 -18 8 -33 0 -24 -13
-27 -33 -7 -50 22 -17 9 -41 -19 -34 -17 4 -27 0 -36 -13 -8 -14 -20 -18 -40
-15 -19 3 -31 -1 -34 -10 -4 -9 -16 -13 -34 -10 -32 4 -47 -18 -31 -48 13 -24
13 -30 0 -30 -5 0 -10 6 -10 14 0 8 -7 22 -16 30 -13 13 -19 14 -37 4 -12 -7
-30 -11 -40 -9 -10 1 -27 -5 -36 -13 -25 -23 -49 -11 -43 19 5 29 -20 44 -42
26 -14 -12 -10 -51 5 -51 5 0 9 -4 9 -10 0 -5 -7 -10 -15 -10 -8 0 -15 9 -15
19 0 11 -8 27 -17 37 -10 9 -17 26 -18 38 0 16 -6 21 -25 21 -32 0 -41 -34
-11 -42 12 -3 21 -8 21 -12 0 -15 -23 -28 -41 -24 -14 4 -17 11 -13 27 3 13
-1 27 -9 34 -15 13 -47 6 -47 -10 0 -5 -9 -6 -20 -3 -12 4 -27 1 -35 -5 -20
-17 -45 -5 -45 20 0 11 -7 23 -15 26 -10 4 -13 14 -9 28 8 32 -21 54 -47 38
-11 -7 -24 -10 -30 -7 -13 9 -1 25 14 19 7 -2 21 4 32 15 14 17 15 23 5 36
-15 18 -41 20 -57 4 -15 -15 -33 -3 -33 20 0 10 -7 24 -16 31 -12 11 -18 10
-31 -3 -15 -14 -15 -20 -3 -42 15 -28 9 -39 -23 -40 -12 0 -26 -10 -33 -23 -7
-15 -14 -20 -18 -13 -11 17 -43 13 -50 -5 -4 -9 0 -24 8 -33 18 -20 5 -47 -17
-38 -8 3 -23 -1 -34 -8 -10 -8 -29 -15 -43 -15 -15 0 -31 -5 -38 -12 -9 -9
-12 -8 -12 5 0 10 8 17 18 17 10 0 23 5 30 12 7 7 24 12 40 13 20 0 28 6 30
21 4 30 -24 38 -47 13 -12 -13 -21 -17 -26 -10 -9 15 -21 14 -39 -5 -9 -8 -24
-13 -34 -10 -14 5 -17 13 -14 38 l5 31 -42 -6 c-36 -4 -41 -3 -41 15 0 16 3
18 13 9 19 -15 53 10 44 33 -8 20 -46 21 -53 1 -5 -12 -10 -13 -20 -4 -24 19
-16 38 13 36 22 -2 29 3 31 21 4 27 -22 40 -43 22 -16 -14 -93 -21 -100 -9 -3
3 9 9 26 13 24 5 30 10 27 28 -4 27 -37 37 -50 14 -13 -23 -37 -8 -35 21 3 34
-26 52 -53 35 -26 -16 -30 -15 -30 4 0 9 6 14 13 11 19 -7 50 20 43 38 -9 24
-37 31 -51 11 -18 -24 -44 -10 -42 22 2 20 -3 28 -19 30 -11 2 -27 -5 -35 -14
-12 -14 -11 -19 8 -33 16 -13 18 -20 9 -32 -6 -8 -21 -13 -34 -11 -31 5 -41
-26 -15 -48 17 -13 18 -19 8 -33 -7 -10 -23 -16 -36 -15 -18 2 -25 -2 -27 -20
-4 -28 26 -42 43 -19 7 10 20 14 32 11 11 -3 27 1 35 10 9 8 18 12 22 9 13
-13 5 -24 -24 -34 -32 -12 -38 -29 -17 -51 18 -17 7 -43 -17 -43 -10 0 -24 -8
-30 -17 -8 -14 -6 -20 9 -32 16 -11 17 -16 6 -29 -9 -12 -10 -21 -2 -36 17
-30 13 -41 -13 -41 -16 0 -27 -7 -31 -20 -10 -31 -44 -9 -38 25 6 31 -21 45
-44 22 -14 -14 -13 -17 5 -33 16 -13 19 -21 11 -31 -25 -30 20 -60 48 -32 13
13 36 3 28 -12 -4 -5 -15 -9 -26 -9 -10 0 -24 -8 -30 -19 -8 -11 -19 -16 -32
-13 -25 6 -39 -16 -31 -50 5 -24 2 -28 -16 -28 -19 0 -20 2 -10 15 10 12 10
18 0 30 -16 19 -34 19 -50 0 -8 -9 -17 -12 -22 -7 -12 12 2 44 17 38 21 -7 47
17 39 37 -8 22 -40 22 -52 1 -11 -19 -32 -10 -32 13 0 10 6 13 16 9 40 -15 60
43 22 62 -13 6 -17 11 -10 11 17 1 15 48 -3 55 -18 7 -45 -2 -45 -15 0 -6 -9
-5 -20 1 -12 6 -19 19 -17 33 2 17 -4 23 -25 25 -24 3 -28 0 -28 -22 0 -14 4
-27 10 -31 16 -10 0 -33 -20 -28 -10 3 -27 -4 -38 -15 -21 -21 -46 -15 -37 9
8 22 -17 51 -38 43 -21 -8 -23 -42 -2 -50 10 -4 12 -15 9 -34 -4 -15 -1 -31 5
-34 14 -9 2 -36 -14 -30 -7 3 -11 13 -8 23 7 26 -22 47 -42 31 -19 -16 -19
-39 0 -46 12 -5 13 -10 4 -20 -19 -23 -40 -17 -34 9 8 31 -18 55 -40 37 -21
-17 -19 -41 4 -47 17 -4 18 -8 8 -24 -7 -12 -19 -16 -32 -13 -13 3 -27 -1 -34
-10 -9 -10 -22 -14 -36 -10 -17 4 -27 0 -36 -13 -8 -13 -20 -18 -39 -15 -15 2
-31 -1 -34 -7 -4 -6 -20 -11 -35 -11 -16 0 -34 -6 -41 -14 -12 -16 -44 -10
-34 5 12 19 -7 50 -29 47 -27 -4 -36 -45 -13 -54 18 -7 11 -24 -10 -24 -8 0
-14 10 -14 25 0 13 -6 28 -14 32 -7 4 -13 19 -12 33 1 19 -5 26 -22 28 -30 4
-42 -26 -17 -44 14 -11 15 -16 6 -28 -6 -8 -20 -12 -31 -9 -16 4 -17 8 -7 24
9 15 8 22 -4 34 -17 18 -49 10 -49 -11 0 -11 -4 -12 -19 -3 -27 18 -16 51 15
43 29 -7 43 18 23 42 -7 9 -13 28 -14 42 0 20 -6 28 -22 30 -19 3 -23 -1 -23
-23 0 -14 7 -28 15 -31 22 -9 -3 -43 -27 -36 -10 2 -26 -2 -36 -11 -14 -13
-20 -13 -34 -3 -10 7 -15 16 -12 19 3 3 3 15 -1 26 -8 27 -45 28 -52 1 -4 -15
-9 -17 -22 -10 -22 11 -44 -3 -39 -26 4 -24 48 -32 48 -10 0 18 8 20 29 7 7
-5 11 -13 8 -18 -3 -5 0 -21 8 -36 15 -29 8 -39 -34 -52 -21 -6 -23 -11 -17
-46 5 -31 3 -39 -9 -39 -11 0 -14 7 -10 23 9 34 -20 57 -42 34 -15 -14 -15
-18 0 -41 18 -27 8 -43 -24 -38 -9 2 -22 -4 -29 -13 -11 -13 -11 -20 0 -39 15
-30 6 -46 -26 -46 -14 0 -27 -6 -30 -14 -3 -8 -13 -12 -23 -9 -13 3 -16 12
-13 34 5 34 -15 47 -47 29 -17 -9 -21 -8 -21 5 0 9 9 15 25 15 15 0 25 6 25
14 0 10 9 14 27 13 22 -2 29 3 31 21 4 29 -26 42 -44 18 -17 -24 -34 -12 -34
25 0 16 -6 32 -14 35 -21 8 -8 46 14 39 21 -7 44 19 36 40 -7 19 -30 19 -46 0
-14 -17 -30 -11 -30 11 0 8 10 14 25 14 32 0 43 26 22 48 -15 14 -18 14 -36
-2 -13 -12 -21 -14 -26 -6 -4 7 -2 17 4 23 6 6 11 8 11 4 0 -4 9 -3 20 3 24
13 27 48 4 57 -11 4 -13 13 -9 33 4 17 1 31 -9 39 -22 18 -8 42 23 39 20 -2
27 2 29 18 2 12 -4 24 -12 27 -19 8 -46 -1 -46 -15 0 -5 -4 -6 -10 -3 -5 3
-10 17 -10 30 0 13 -8 31 -17 41 -10 9 -16 28 -15 40 3 18 -3 25 -23 30 -15 4
-31 2 -38 -5 -19 -19 -36 -12 -39 17 -4 35 -41 39 -46 5 -2 -13 2 -23 8 -23 6
0 10 -8 8 -17 -2 -12 -13 -18 -33 -18 -26 0 -31 -4 -36 -35 -4 -19 -7 -27 -8
-18 0 9 -7 23 -15 31 -8 8 -14 22 -13 33 2 14 -5 20 -25 22 -22 3 -28 -1 -28
-16 0 -11 7 -23 15 -26 28 -11 1 -44 -31 -38 -18 3 -31 -1 -39 -12 -16 -22
-44 -11 -38 15 7 27 -15 53 -33 38 -18 -15 -18 -33 0 -48 8 -7 12 -21 8 -33
-3 -13 1 -26 12 -34 15 -10 15 -15 5 -33 -11 -17 -10 -23 4 -39 21 -23 22 -46
2 -38 -37 14 -62 -28 -31 -53 11 -9 18 -8 30 4 18 18 38 12 30 -10 -3 -8 -15
-13 -26 -12 -31 3 -47 -28 -25 -50 14 -15 21 -16 37 -5 24 15 30 15 30 2 0 -5
-6 -10 -13 -10 -8 0 -21 -8 -31 -19 -11 -12 -25 -16 -41 -13 -31 5 -45 -22
-23 -45 14 -13 18 -13 35 6 18 19 21 20 33 6 15 -18 6 -31 -25 -37 -26 -4 -33
-46 -9 -55 10 -4 21 0 29 10 13 18 32 10 32 -15 0 -13 -6 -16 -22 -12 -29 7
-53 -20 -35 -41 16 -19 29 -19 52 2 17 15 18 15 18 0 0 -10 -6 -17 -13 -17 -8
0 -21 -8 -31 -19 -11 -12 -25 -16 -41 -13 -29 5 -44 -21 -27 -48 12 -19 7 -30
-14 -30 -7 0 -10 8 -7 19 5 20 -27 38 -47 26 -16 -10 -12 -45 5 -45 8 0 15 -4
15 -9 0 -15 -23 -26 -48 -22 -13 1 -25 -4 -28 -13 -9 -23 -24 -20 -24 5 0 15
5 19 15 15 19 -7 46 20 39 39 -8 19 -43 20 -50 1 -3 -8 -15 -11 -29 -8 -21 4
-23 7 -12 29 9 21 8 27 -6 38 -21 15 -13 44 11 39 24 -6 46 11 39 30 -10 25
-38 32 -52 13 -8 -11 -15 -13 -22 -6 -11 11 -53 -4 -53 -19 0 -4 -15 -7 -32
-7 -33 0 -33 -1 -30 -42 2 -33 -1 -43 -13 -43 -11 0 -13 7 -9 29 7 35 -17 48
-41 22 -14 -17 -14 -20 -1 -34 22 -21 10 -45 -21 -44 -28 0 -48 -22 -33 -37
13 -13 13 -46 0 -46 -5 0 -10 11 -10 25 0 29 -25 43 -49 28 -19 -12 -41 -6
-41 11 0 6 12 12 28 11 20 0 27 5 27 19 0 28 -33 45 -48 26 -18 -24 -48 -14
-41 14 3 14 -1 27 -11 36 -13 11 -18 10 -33 -3 -21 -19 -42 -6 -42 24 0 28
-25 42 -50 29 -16 -9 -25 -9 -33 -1 -11 11 -9 12 28 15 23 1 32 31 14 52 -10
13 -14 13 -29 -1 -20 -18 -54 -9 -46 12 3 7 -2 21 -12 31 -10 10 -18 31 -18
47 1 37 -28 46 -45 14 -10 -19 -9 -25 7 -36 13 -10 15 -16 7 -24 -19 -19 -41
-4 -36 23 6 32 -20 56 -42 38 -19 -16 -19 -47 -1 -57 19 -10 0 -39 -29 -44
-26 -5 -32 -39 -10 -55 10 -8 12 -14 6 -19 -16 -9 -14 -21 6 -41 10 -10 16
-29 15 -44 -2 -18 2 -30 13 -34 12 -4 14 -10 5 -25 -14 -27 -39 -16 -37 16 2
32 -29 56 -43 33 -15 -24 -12 -41 10 -47 16 -4 18 -8 9 -19 -6 -8 -9 -21 -5
-29 7 -20 42 -19 50 2 6 15 8 15 23 1 19 -20 10 -38 -16 -31 -12 3 -24 -2 -32
-14 -8 -14 -20 -18 -40 -15 -20 3 -31 -1 -35 -12 -4 -11 -13 -14 -28 -10 -14
3 -27 -1 -35 -9 -6 -8 -20 -13 -31 -10 -16 4 -17 8 -7 25 10 17 9 22 -9 34
-31 21 -21 56 13 48 27 -7 45 9 36 33 -7 17 -40 17 -50 0 -6 -11 -13 -11 -31
-1 -15 7 -20 14 -13 18 16 10 14 32 -5 50 -20 20 -7 41 26 41 18 0 26 6 28 21
4 27 -25 40 -47 20 -19 -18 -44 -6 -36 16 4 10 15 13 30 11 17 -4 25 1 30 16
13 41 -25 58 -46 20 -10 -19 -13 -20 -26 -6 -19 18 -6 42 22 42 25 0 34 42 10
51 -12 5 -13 10 -4 20 17 20 3 44 -25 44 -31 0 -40 -24 -16 -45 26 -24 15 -46
-20 -39 -22 5 -31 1 -40 -16 -8 -16 -15 -19 -24 -11 -9 8 -18 7 -32 -4 -16
-12 -17 -17 -6 -35 17 -28 7 -59 -17 -53 -26 7 -48 -24 -33 -47 17 -27 6 -48
-23 -43 -17 4 -25 -1 -30 -17 -5 -16 -10 -18 -20 -10 -7 6 -20 8 -29 4 -24 -9
-20 -43 7 -54 12 -5 17 -9 10 -9 -18 -1 -26 -37 -13 -61 9 -16 8 -20 -6 -20
-10 0 -14 3 -11 6 9 10 -12 44 -27 44 -8 0 -19 -7 -26 -15 -7 -9 -21 -13 -30
-10 -20 6 -45 -19 -35 -35 9 -14 52 -13 57 2 2 6 9 8 16 4 19 -11 3 -34 -25
-33 -14 0 -30 -8 -35 -16 -13 -24 -37 -9 -35 21 2 21 -3 28 -21 30 -29 4 -42
-26 -18 -44 12 -8 16 -19 11 -34 -4 -11 -1 -27 5 -35 12 -15 6 -35 -12 -35 -6
0 -8 9 -5 20 6 24 -18 51 -38 44 -22 -9 -28 -37 -10 -51 20 -14 12 -33 -13
-33 -13 0 -18 8 -17 28 0 20 -5 28 -21 30 -27 4 -38 -23 -18 -43 13 -12 13
-19 4 -30 -17 -20 -38 -8 -33 19 6 30 -26 45 -44 21 -14 -20 -7 -45 14 -45 12
0 13 -3 4 -14 -19 -22 -49 -9 -43 20 6 33 -25 45 -47 17 -13 -15 -20 -17 -33
-9 -13 8 -21 6 -35 -6 -22 -21 -40 -12 -44 22 -5 29 -45 41 -55 16 -5 -12 -10
-13 -30 -4 -19 9 -22 14 -12 26 10 11 8 18 -8 31 -17 13 -19 20 -10 34 14 24
-19 53 -41 36 -17 -15 -17 -29 1 -48 18 -20 6 -44 -17 -35 -12 4 -15 13 -11
28 7 31 -18 51 -45 37 -29 -16 -41 -13 -41 8 0 14 6 17 25 13 30 -5 44 20 24
45 -8 9 -14 28 -14 42 0 21 -5 26 -24 26 -32 0 -37 -19 -13 -43 15 -15 16 -22
8 -34 -15 -20 -43 -1 -38 25 6 28 -16 49 -39 36 -23 -12 -25 -47 -3 -56 13 -5
13 -7 2 -14 -20 -13 -28 -11 -28 9 0 21 -18 42 -37 42 -21 0 -35 -37 -19 -52
7 -8 14 -25 14 -39 1 -13 3 -33 4 -43 2 -10 -2 -21 -8 -23 -7 -2 -10 6 -6 23
6 31 -14 47 -40 33 -22 -12 -23 -32 -4 -49 20 -16 8 -43 -16 -37 -10 3 -25 -2
-34 -10 -13 -14 -13 -17 2 -34 9 -10 13 -23 9 -29 -9 -15 -25 -3 -25 19 0 10
-7 24 -15 31 -9 7 -13 21 -10 30 3 9 -1 23 -10 30 -8 7 -14 24 -13 39 2 32 -8
51 -27 51 -11 0 -12 6 -5 25 8 20 6 27 -10 35 -17 9 -18 14 -7 31 10 17 9 23
-8 37 -11 9 -19 24 -18 32 5 29 -13 45 -39 33 -28 -12 -49 -6 -41 13 3 7 9 11
14 8 13 -8 49 15 49 31 0 21 -41 30 -55 12 -15 -21 -35 -3 -35 30 0 30 -21 38
-52 22 -13 -7 -33 -12 -45 -10 -13 1 -27 -6 -35 -18 -9 -14 -19 -18 -39 -14
-33 6 -47 -21 -24 -47 16 -17 11 -30 -12 -30 -7 0 -12 9 -10 21 3 32 -28 48
-50 26 -17 -18 -17 -19 4 -37 19 -15 20 -20 8 -30 -18 -15 -34 -5 -28 18 2 10
-3 24 -12 32 -14 11 -19 11 -33 -4 -14 -14 -15 -20 -4 -37 14 -22 8 -39 -14
-39 -11 0 -13 6 -9 19 3 11 -1 26 -11 36 -15 15 -18 15 -32 1 -13 -13 -14 -19
-3 -40 14 -24 7 -51 -9 -41 -14 8 -50 -13 -50 -29 0 -8 7 -19 15 -26 11 -9 12
-17 4 -32 -8 -15 -7 -24 6 -38 19 -20 12 -42 -9 -34 -8 3 -12 13 -9 23 2 9 -3
24 -12 31 -15 13 -20 12 -35 -7 -12 -16 -20 -19 -28 -11 -16 16 -42 2 -42 -22
0 -27 26 -36 48 -18 22 19 58 12 42 -7 -13 -15 2 -55 20 -55 6 0 5 -9 -2 -20
-7 -11 -18 -18 -25 -16 -15 6 -45 -22 -40 -38 6 -19 40 -19 54 0 10 14 16 15
25 6 15 -15 2 -29 -32 -34 -33 -4 -42 -47 -11 -55 17 -4 18 -8 8 -24 -9 -15
-9 -23 1 -39 16 -26 15 -30 -4 -30 -8 0 -12 5 -9 10 9 15 -14 40 -35 40 -10 0
-20 -7 -24 -15 -10 -26 -44 2 -38 32 7 35 -17 47 -44 22 -18 -17 -23 -18 -33
-5 -15 18 -6 37 14 29 24 -9 46 16 34 38 -13 25 -39 24 -46 0 -4 -17 -7 -18
-23 -4 -10 9 -15 23 -13 34 4 15 9 17 25 8 28 -15 50 -4 46 23 -4 28 -37 36
-54 13 -10 -13 -16 -14 -32 -4 -11 7 -17 19 -15 29 2 9 -3 23 -12 30 -15 13
-20 12 -35 -7 -11 -14 -21 -18 -27 -12 -16 16 -44 -1 -41 -25 4 -25 38 -34 50
-13 5 9 16 13 28 10 23 -6 25 -14 8 -32 -11 -10 -9 -16 9 -30 25 -21 14 -41
-23 -41 -12 0 -27 -7 -34 -15 -7 -9 -21 -13 -30 -10 -26 8 -47 -22 -32 -46 15
-23 8 -39 -17 -39 -29 0 -47 -28 -33 -50 12 -19 7 -50 -8 -50 -5 0 -10 15 -12
33 -2 24 -8 32 -23 32 -14 0 -21 -8 -23 -27 -3 -21 1 -28 14 -28 13 0 14 -3 4
-15 -21 -26 -41 -19 -34 12 5 18 2 30 -10 38 -19 15 -11 46 10 38 24 -9 45 16
33 38 -12 24 -35 24 -48 2 -12 -23 -35 -4 -25 20 4 12 13 15 29 11 18 -4 25
-1 30 16 12 38 -40 57 -53 19 -7 -18 -10 -19 -21 -5 -15 17 -5 40 14 32 16 -6
35 13 35 36 0 20 -44 26 -56 7 -4 -7 -10 -7 -16 -1 -13 13 0 35 17 28 7 -2 21
4 30 14 16 17 15 20 -3 38 -13 13 -18 28 -15 46 4 17 0 28 -9 31 -9 4 -13 16
-10 34 2 16 -1 32 -7 35 -6 4 -11 16 -11 27 0 15 5 19 18 15 24 -8 45 8 40 30
-4 24 -38 31 -50 10 -13 -23 -40 -9 -28 15 7 11 16 16 27 12 19 -7 44 22 36
43 -7 19 -37 18 -53 -1 -10 -12 -16 -13 -26 -4 -16 13 -8 32 9 26 17 -6 47 11
47 27 0 8 -7 19 -15 26 -13 11 -20 11 -39 0 -29 -15 -49 -5 -41 19 7 22 -19
46 -40 37 -20 -7 -19 -45 0 -52 21 -8 0 -34 -27 -34 -17 0 -18 3 -8 15 17 21
5 45 -24 45 -30 0 -39 -21 -21 -48 15 -20 11 -32 -11 -32 -7 0 -14 12 -16 28
-2 19 -9 28 -24 30 -31 4 -41 -28 -15 -49 21 -17 18 -29 -6 -29 -7 0 -13 8
-13 19 0 10 -7 24 -16 31 -12 11 -18 10 -32 -4 -13 -13 -14 -20 -5 -35 13 -20
1 -47 -16 -36 -7 3 -9 15 -6 25 6 20 -20 41 -42 33 -18 -6 -16 -42 2 -49 21
-8 0 -34 -27 -34 -15 0 -17 4 -9 18 12 23 -1 45 -25 40 -23 -4 -31 -38 -11
-49 9 -5 13 -18 10 -34 -4 -16 0 -27 10 -31 11 -4 14 -15 10 -40 -4 -25 -1
-35 10 -39 25 -10 9 -41 -21 -40 -20 0 -27 -5 -27 -20 0 -23 34 -33 46 -14 6
11 11 11 20 2 14 -14 3 -34 -15 -27 -23 9 -48 -24 -36 -47 13 -23 28 -24 52
-2 14 13 18 13 18 2 0 -8 -10 -19 -23 -24 -25 -12 -35 -52 -14 -61 9 -3 12
-14 9 -31 -3 -17 1 -30 12 -38 24 -18 10 -44 -22 -42 -31 2 -43 -30 -18 -49
15 -10 15 -13 1 -24 -18 -15 -31 -6 -37 25 -4 23 -37 33 -48 14 -11 -16 -1
-39 16 -39 8 0 14 -4 14 -9 0 -15 -22 -26 -50 -26 -22 0 -25 -4 -24 -37 1 -21
-3 -38 -7 -38 -5 0 -9 9 -9 21 0 12 -8 23 -19 26 -17 4 -18 8 -8 24 9 15 8 22
-4 34 -9 9 -23 13 -32 9 -21 -8 -22 -40 -2 -51 9 -5 11 -13 6 -22 -13 -20 -31
-4 -31 29 0 15 -7 30 -15 34 -8 3 -12 12 -9 21 3 8 10 12 15 9 17 -10 49 7 49
27 0 26 -27 35 -48 16 -22 -20 -43 -8 -35 21 4 17 9 20 18 12 18 -15 45 -2 45
21 0 28 -30 36 -46 14 -11 -14 -16 -16 -28 -6 -20 17 -10 38 17 37 17 -1 23 5
25 27 3 21 -1 27 -15 27 -11 0 -24 -5 -30 -11 -15 -15 -34 -3 -26 17 3 9 12
12 23 9 11 -4 24 1 32 12 7 10 24 18 38 18 18 0 25 5 25 20 0 24 -35 33 -47
11 -13 -23 -41 -8 -34 19 8 30 -16 49 -51 42 l-28 -6 27 12 c35 14 47 46 23
63 -23 17 -12 48 14 39 10 -3 24 1 31 10 11 13 11 19 -2 31 -17 17 -48 9 -48
-13 0 -12 -3 -12 -16 2 -20 20 -11 45 14 39 23 -7 45 18 36 40 -7 19 -35 21
-52 4 -9 -9 -15 -9 -24 0 -9 9 -5 14 19 23 40 13 48 34 23 57 -21 20 -12 49
13 39 22 -8 52 17 44 37 -8 20 -46 21 -53 1 -10 -24 -34 2 -34 35 0 16 -5 30
-11 32 -21 7 0 45 23 44 27 -1 37 33 14 46 -12 7 -14 14 -6 28 7 14 6 23 -7
36 -10 9 -16 28 -15 41 2 14 -3 30 -12 36 -21 16 0 42 34 42 18 0 25 5 25 20
0 25 -42 34 -51 10 -5 -12 -9 -13 -20 -4 -20 16 -17 41 4 37 9 -1 23 1 29 5
18 11 16 46 -2 53 -11 5 -12 11 -5 25 6 10 17 16 25 13 24 -10 46 15 34 37
-12 23 -23 24 -42 5 -8 -8 -24 -12 -35 -9 -18 4 -19 8 -9 24 9 15 9 24 -1 39
-15 25 -8 40 18 40 19 0 36 32 25 50 -10 16 -33 12 -44 -7 -7 -14 -13 -15 -22
-6 -16 16 -3 33 26 33 15 0 26 7 30 21 5 15 10 17 20 9 7 -6 19 -8 28 -4 24 9
28 33 7 46 -25 16 -9 49 20 41 16 -4 18 -8 9 -19 -15 -19 -4 -44 20 -44 24 0
35 28 19 48 -7 8 -12 24 -10 34 2 11 -1 25 -7 32 -17 20 -3 45 20 39 15 -4 17
-8 8 -19 -16 -19 -4 -44 21 -44 27 0 36 26 17 48 -18 20 -8 46 15 37 10 -4 13
-15 10 -35 -4 -25 -1 -30 16 -30 12 0 25 8 31 18 9 16 11 16 27 0 21 -21 11
-37 -20 -31 -26 5 -39 -7 -30 -30 8 -22 37 -30 49 -14 13 18 35 10 35 -13 0
-14 -7 -18 -32 -16 -29 1 -33 -2 -33 -24 0 -26 20 -31 58 -15 12 5 17 3 17 -8
0 -9 -10 -17 -22 -19 -25 -3 -38 -45 -19 -58 18 -11 1 -41 -19 -35 -9 3 -23
-2 -30 -10 -11 -13 -10 -19 4 -33 13 -14 20 -14 36 -4 30 19 40 15 40 -16 0
-15 5 -33 11 -39 8 -8 8 -16 0 -30 -6 -10 -11 -14 -11 -10 0 14 -40 -13 -40
-27 0 -8 7 -19 15 -26 12 -10 13 -16 4 -26 -9 -11 -8 -18 1 -29 14 -17 46 -20
55 -5 7 12 25 4 25 -11 0 -5 -11 -9 -24 -9 -23 0 -42 -32 -30 -52 7 -11 38
-10 50 2 14 14 47 1 40 -15 -7 -20 19 -49 38 -42 18 7 22 53 4 59 -6 2 -8 9
-4 16 8 14 37 4 35 -12 -3 -27 3 -36 25 -36 29 0 40 24 20 45 -8 8 -12 20 -9
25 11 18 30 5 30 -21 0 -33 40 -40 50 -9 4 12 2 27 -3 32 -14 14 -4 38 14 31
8 -3 25 2 39 11 13 9 33 16 44 16 26 0 39 39 18 55 -10 7 -14 20 -10 34 3 13
-1 29 -11 40 -9 10 -14 25 -10 35 4 9 0 24 -9 34 -20 23 -8 47 23 47 33 0 36
38 3 43 -16 2 -23 -2 -23 -12 0 -19 -14 -21 -28 -3 -14 16 -3 32 22 32 28 0
43 29 26 51 -8 9 -13 28 -12 41 2 13 -2 30 -8 38 -16 19 -5 34 19 28 13 -3 23
2 30 16 9 17 15 19 29 10 10 -6 17 -23 17 -38 0 -19 5 -26 20 -26 25 0 34 42
11 51 -12 5 -13 9 -3 24 9 15 8 23 -5 37 -11 12 -14 24 -9 32 12 19 31 4 31
-25 0 -31 28 -43 46 -20 15 21 8 46 -13 46 -10 0 -12 4 -4 17 5 10 21 17 38
18 21 0 29 5 31 23 2 13 -2 29 -8 37 -7 9 -8 15 0 20 12 8 32 -3 25 -14 -2 -5
2 -17 10 -27 12 -16 17 -17 35 -6 23 14 40 8 40 -14 0 -10 -7 -13 -23 -9 -27
7 -52 -16 -43 -40 6 -17 41 -20 51 -5 9 15 25 12 25 -4 0 -8 -10 -16 -22 -18
-28 -4 -39 -55 -14 -64 28 -11 -2 -41 -36 -36 -26 4 -29 2 -26 -19 4 -28 37
-38 50 -15 14 25 46 0 40 -31 -3 -14 1 -29 8 -33 18 -11 3 -49 -18 -44 -29 7
-46 -10 -33 -35 7 -11 16 -21 22 -21 6 0 6 -6 1 -17 -5 -10 -7 -24 -5 -30 6
-16 45 -17 61 -1 9 9 12 8 12 -4 0 -10 -10 -18 -22 -20 -27 -4 -39 -54 -15
-63 9 -4 12 -16 9 -35 -3 -21 1 -32 12 -36 12 -5 13 -10 6 -25 -8 -14 -6 -23
8 -37 23 -23 14 -47 -18 -47 -18 0 -26 -6 -28 -23 -5 -30 26 -42 44 -17 10 14
17 16 25 8 14 -14 1 -36 -17 -29 -8 3 -22 -3 -30 -13 -9 -10 -24 -17 -33 -14
-10 2 -23 -3 -31 -12 -11 -13 -11 -18 2 -31 17 -17 48 -9 48 13 0 13 3 13 15
3 12 -10 21 -10 42 -1 14 6 28 10 30 7 10 -9 -9 -26 -28 -26 -25 0 -36 -27
-21 -51 20 -32 15 -50 -12 -43 -19 4 -26 1 -31 -15 -8 -26 1 -41 26 -41 12 0
19 7 19 20 0 11 4 20 9 20 17 0 30 -26 24 -48 -4 -18 -8 -20 -19 -11 -21 17
-46 3 -42 -23 4 -27 35 -36 51 -14 8 10 17 13 26 7 19 -12 4 -31 -25 -31 -30
0 -42 -26 -22 -47 13 -12 20 -13 37 -4 12 7 26 9 31 6 19 -12 9 -24 -23 -27
-24 -2 -32 -8 -32 -22 0 -28 33 -45 48 -25 14 19 37 14 37 -8 0 -10 -6 -13
-16 -9 -21 8 -54 -11 -54 -31 0 -12 -3 -13 -15 -3 -20 17 -45 5 -45 -20 0 -27
26 -36 48 -17 25 23 57 4 40 -23 -9 -14 -16 -16 -25 -8 -18 15 -43 2 -43 -22
0 -28 29 -38 46 -16 17 24 55 5 47 -23 -3 -13 2 -24 15 -32 16 -10 18 -16 9
-30 -8 -13 -7 -21 2 -33 18 -22 38 -20 51 4 8 15 6 23 -10 38 -18 17 -19 21
-6 31 8 7 19 10 24 7 16 -10 44 18 36 37 -8 21 -43 22 -50 2 -8 -21 -34 0 -34
26 0 21 11 24 26 9 17 -17 45 0 42 24 -4 26 -58 37 -58 12 0 -18 -8 -20 -30
-6 -19 11 -4 27 29 32 33 4 49 32 33 58 -6 11 -12 27 -12 35 0 12 4 14 19 5
23 -12 54 12 45 35 -9 22 -37 28 -50 11 -21 -29 -50 -14 -38 18 5 12 10 14 19
6 7 -6 20 -8 29 -4 20 8 21 50 2 61 -19 11 1 38 29 38 13 0 21 8 23 23 4 29
-26 42 -44 18 -14 -20 -36 -13 -27 9 3 8 15 15 28 15 29 0 39 25 20 53 -15 23
-6 55 13 43 17 -10 42 5 42 25 0 11 -7 22 -15 25 -11 4 -13 13 -9 28 9 29 11
31 28 17 20 -17 36 -6 36 25 0 17 -5 24 -19 24 -11 0 -23 -5 -26 -10 -11 -17
-37 -11 -33 8 2 9 10 16 16 14 19 -4 52 17 52 33 0 8 -7 18 -15 23 -25 14 -7
42 27 42 25 0 29 4 26 23 -3 23 -48 39 -48 17 0 -18 -23 -6 -26 14 -2 12 2 16
12 12 37 -14 64 42 30 61 -12 7 -12 11 -1 26 8 11 16 14 19 8 4 -6 13 -8 21
-4 17 6 20 48 5 58 -17 10 1 34 28 37 19 2 28 10 30 24 4 28 -25 39 -48 19
-17 -16 -30 -11 -30 12 0 8 11 13 29 13 36 0 50 28 24 50 -12 10 -19 30 -20
63 -1 44 0 47 23 47 14 0 27 7 30 15 4 8 17 15 30 15 28 0 42 25 28 49 -18 29
-6 48 26 43 20 -3 32 1 35 10 4 10 15 13 30 10 17 -3 27 1 31 12 5 12 10 13
25 6 25 -14 14 -36 -19 -35 -20 0 -28 -5 -30 -21 -4 -27 25 -40 47 -20 22 20
45 5 37 -22 -5 -15 -1 -25 13 -34 14 -8 19 -19 15 -33 -8 -31 21 -53 47 -37
11 7 24 10 30 7 13 -9 0 -27 -16 -21 -7 2 -21 -2 -32 -9 -14 -11 -16 -17 -7
-32 7 -10 20 -16 30 -14 35 7 43 6 46 -4 2 -5 -7 -11 -20 -13 -28 -4 -39 -27
-22 -47 15 -19 25 -19 43 -1 17 17 40 5 32 -17 -4 -9 -17 -15 -33 -14 -21 2
-28 -3 -30 -19 -4 -29 34 -40 51 -14 14 23 37 9 37 -24 0 -38 15 -51 44 -38
14 6 28 7 31 2 3 -5 -4 -10 -16 -12 -12 -2 -27 -11 -33 -21 -9 -15 -7 -22 10
-36 26 -21 12 -46 -26 -46 -18 0 -25 -5 -25 -20 0 -24 42 -34 51 -12 3 9 14
12 30 9 13 -2 30 1 37 7 15 12 27 5 27 -15 0 -7 -8 -10 -18 -7 -22 5 -46 -21
-38 -42 6 -18 37 -20 53 -4 15 15 34 3 26 -17 -3 -9 -12 -12 -24 -9 -11 4 -22
-1 -30 -13 -8 -13 -20 -17 -40 -14 -24 4 -29 1 -29 -16 0 -25 28 -36 48 -20 8
7 25 11 38 10 15 -2 26 3 30 13 8 21 34 1 34 -27 0 -15 -4 -17 -18 -10 -36 19
-60 -21 -28 -47 12 -10 19 -8 34 7 23 23 43 12 35 -19 -4 -15 -9 -17 -24 -8
-24 12 -39 4 -39 -21 0 -25 31 -35 46 -15 17 23 58 2 49 -25 -3 -10 1 -25 10
-33 8 -9 14 -26 13 -39 -3 -18 2 -24 24 -26 22 -3 28 1 28 17 0 11 -8 24 -17
30 -14 8 -15 12 -4 25 11 13 11 19 1 31 -7 8 -19 15 -26 15 -12 0 -12 4 -2 20
10 16 10 24 0 40 -14 23 -8 40 12 40 8 0 12 -9 9 -23 -6 -31 21 -55 42 -37 19
16 19 34 0 50 -9 8 -13 21 -9 35 4 15 0 26 -10 32 -26 14 -9 52 22 50 30 -2
44 29 21 47 -8 6 -15 22 -16 36 -1 14 -3 34 -5 45 -2 14 3 21 19 23 12 2 26 9
32 16 12 14 5 46 -9 46 -4 0 -5 11 -2 25 2 14 -1 32 -8 40 -14 17 -4 39 16 31
7 -3 22 6 32 19 12 16 22 21 29 14 14 -14 43 0 43 22 0 27 -27 35 -49 15 -14
-12 -21 -14 -26 -6 -9 14 3 27 30 32 17 3 20 11 17 46 -2 30 2 42 11 42 9 0
12 -9 9 -29 -4 -32 21 -49 44 -30 18 15 18 24 -1 43 -20 19 -9 46 19 46 32 0
47 19 35 42 -6 11 -8 26 -5 35 10 24 30 9 31 -23 0 -22 5 -29 20 -29 24 0 33
34 12 50 -22 16 2 46 31 38 18 -4 20 -8 11 -19 -16 -19 -4 -44 21 -44 15 0 20
7 20 25 0 14 -5 25 -11 25 -7 0 -9 9 -6 22 3 12 1 30 -4 40 -5 10 -6 24 -2 31
5 8 9 1 13 -18 6 -33 32 -44 56 -24 13 10 13 15 0 34 -16 24 -12 35 11 35 9 0
13 -9 11 -27 -3 -24 1 -28 25 -31 23 -3 27 0 27 22 0 13 -5 26 -12 28 -6 2 -8
10 -4 16 11 19 24 14 28 -9 5 -33 33 -47 55 -27 22 21 40 12 44 -22 3 -17 10
-25 24 -25 23 0 34 34 15 45 -15 10 -4 30 16 30 10 0 14 -8 12 -26 -2 -17 4
-30 15 -38 15 -9 22 -7 38 13 20 24 25 20 31 -29 3 -23 7 -25 46 -23 23 1 42
-2 42 -8 0 -5 -8 -9 -19 -9 -24 0 -43 -23 -35 -44 7 -18 35 -21 51 -5 16 16
33 2 33 -28 0 -16 7 -27 19 -30 15 -4 17 -8 7 -28 -7 -16 -14 -20 -22 -14 -17
14 -44 0 -44 -22 0 -26 30 -37 45 -16 7 10 20 14 33 10 12 -3 28 0 35 6 14 11
27 5 27 -11 0 -5 -4 -7 -9 -4 -18 11 -41 -6 -41 -30 0 -29 25 -42 51 -25 15 9
19 8 19 -4 0 -9 -9 -15 -21 -15 -12 0 -23 -8 -26 -19 -4 -17 -8 -18 -24 -8
-15 9 -22 8 -35 -5 -14 -14 -15 -20 -4 -32 16 -20 25 -20 44 -1 21 22 47 9 40
-21 -4 -17 -1 -26 10 -30 13 -5 15 -14 10 -40 -5 -28 -3 -35 14 -41 16 -7 18
-11 9 -23 -7 -8 -23 -15 -37 -15 -29 0 -41 -33 -16 -47 13 -7 13 -12 4 -28 -7
-10 -16 -17 -20 -14 -4 3 -17 0 -28 -6 -17 -9 -20 -17 -14 -47 5 -28 4 -35 -7
-31 -8 3 -13 15 -11 28 3 20 -11 39 -30 40 -4 0 -12 -9 -18 -21 -8 -15 -8 -24
0 -34 7 -8 9 -19 5 -25 -11 -18 -24 -11 -27 18 -2 21 -8 27 -28 27 -18 0 -26
-6 -28 -23 -2 -13 3 -24 12 -28 18 -7 11 -24 -10 -24 -8 0 -14 10 -14 24 0 13
-7 29 -15 36 -23 19 1 47 37 42 26 -4 29 -2 26 19 -4 28 -37 38 -50 15 -11
-20 -38 -9 -38 16 0 12 6 19 18 17 36 -3 43 1 40 23 -4 31 -36 36 -46 8 -7
-19 -9 -20 -21 -6 -17 20 -6 50 14 42 9 -3 23 3 32 14 13 15 20 17 30 8 18
-15 48 13 40 36 -8 20 -46 21 -53 1 -5 -11 -11 -12 -24 -5 -14 7 -23 6 -34 -5
-8 -8 -22 -12 -31 -9 -25 10 -12 28 21 29 22 0 30 5 32 23 4 28 -23 40 -46 19
-22 -20 -47 -3 -47 33 0 20 -5 25 -25 25 -18 0 -26 -6 -28 -23 -2 -13 3 -24
12 -28 18 -7 11 -24 -10 -24 -8 0 -14 9 -14 20 0 10 -10 25 -22 31 -18 10 -24
8 -38 -9 -11 -14 -21 -17 -32 -11 -10 6 -21 3 -32 -10 -15 -17 -15 -20 -2 -34
21 -20 10 -47 -19 -47 -30 0 -53 -26 -37 -42 18 -18 15 -49 -3 -42 -9 4 -13
13 -10 24 8 25 -20 46 -40 30 -21 -17 -19 -41 4 -47 15 -4 17 -8 8 -28 -9 -18
-15 -20 -28 -12 -13 8 -22 7 -33 -2 -23 -20 -19 -40 9 -47 23 -6 23 -7 8 -23
-9 -9 -28 -16 -42 -16 -19 0 -27 -6 -29 -23 -4 -29 23 -40 47 -18 14 12 21 14
26 6 9 -14 -3 -27 -30 -32 -25 -4 -34 -55 -11 -64 12 -5 13 -10 6 -25 -8 -14
-6 -22 8 -35 27 -23 18 -52 -14 -46 -30 5 -44 -23 -22 -44 13 -14 17 -14 30 0
11 11 24 13 44 7 18 -5 24 -10 16 -15 -16 -9 -15 -43 1 -53 6 -4 12 -19 12
-33 0 -29 33 -41 47 -16 7 13 12 14 28 3 16 -9 24 -9 39 0 18 12 31 8 31 -9 0
-4 -3 -7 -7 -7 -43 7 -63 -23 -33 -48 14 -12 16 -21 10 -34 -12 -21 12 -44 35
-35 20 7 19 45 0 52 -24 10 2 34 35 34 16 0 30 5 32 11 6 17 37 -1 40 -24 4
-27 45 -36 54 -12 5 11 10 13 19 5 19 -16 45 -1 45 26 0 19 -5 24 -25 24 -14
0 -28 -7 -31 -15 -5 -12 -10 -13 -20 -4 -19 16 -8 29 26 29 16 0 32 5 35 10
12 19 35 11 32 -12 -1 -18 4 -24 24 -26 30 -4 45 20 24 38 -19 16 -7 42 16 35
11 -4 26 2 37 13 23 23 47 15 47 -18 0 -18 6 -26 21 -28 27 -4 38 22 18 43
-25 24 -9 52 26 47 26 -4 30 -1 30 20 0 13 -5 29 -11 35 -14 14 -2 34 19 32
10 -1 23 -1 30 0 14 1 16 47 2 56 -13 8 -3 25 15 25 8 0 11 -7 8 -18 -6 -23
19 -44 41 -36 18 7 22 39 6 49 -6 3 -10 15 -10 26 0 16 4 19 21 14 13 -4 27
-1 38 9 25 23 49 11 43 -19 -6 -31 23 -45 45 -22 14 14 14 18 2 33 -7 9 -12
28 -11 41 2 13 -1 30 -7 36 -13 16 -2 34 24 38 22 5 36 59 15 59 -8 0 -10 9
-6 25 5 18 1 28 -13 37 -26 16 -10 48 24 48 24 0 36 15 27 38 -6 18 -39 15
-51 -5 -7 -13 -13 -15 -21 -7 -18 17 -2 42 24 37 25 -5 40 16 30 42 -8 20 -41
19 -52 -1 -8 -14 -10 -14 -21 0 -14 16 -15 15 34 31 20 6 19 44 -1 52 -9 3
-25 1 -35 -6 -15 -9 -19 -8 -19 4 0 9 9 15 24 15 13 0 26 6 29 14 3 8 14 12
25 10 26 -7 49 21 32 41 -16 19 -39 19 -46 0 -10 -26 -41 3 -36 35 2 15 -1 31
-7 34 -17 11 -1 34 19 29 26 -7 41 45 17 59 -14 7 -14 12 -5 28 10 15 9 22 -4
37 -8 10 -15 25 -15 33 0 8 -4 27 -8 43 -5 20 -4 27 7 27 8 0 14 -10 13 -27 0
-21 5 -29 21 -31 31 -4 41 28 15 49 -24 19 -13 35 29 41 27 3 39 33 21 51 -7
7 -17 5 -34 -6 -14 -9 -27 -13 -31 -10 -10 10 4 23 25 23 10 0 24 8 30 18 7
12 20 17 33 15 12 -3 28 2 34 10 7 8 22 13 33 10 15 -4 17 -9 8 -19 -14 -17
-2 -54 17 -54 12 0 12 -4 4 -20 -8 -15 -17 -19 -34 -14 -24 6 -43 -17 -30 -37
7 -12 41 -12 49 1 9 15 37 -1 30 -18 -3 -8 2 -26 10 -39 15 -22 9 -56 -8 -54
-27 4 -37 -2 -37 -19 0 -11 6 -23 14 -26 11 -4 13 -12 6 -29 -5 -14 -5 -26 3
-34 16 -16 37 -14 43 4 5 12 10 13 20 4 16 -13 9 -30 -10 -23 -19 7 -39 -22
-31 -46 6 -19 12 -21 45 -15 34 6 39 4 42 -16 2 -12 11 -27 20 -33 14 -9 21
-6 33 12 13 17 20 20 35 12 27 -14 54 14 40 41 -13 24 -25 24 -49 0 -20 -20
-31 -18 -31 6 0 7 11 13 24 13 13 0 29 6 36 14 15 19 39 10 33 -13 -2 -9 3
-23 12 -31 13 -11 18 -11 31 2 15 14 10 48 -7 48 -5 0 -6 13 -3 29 3 16 1 32
-5 35 -16 10 -1 36 20 36 17 0 18 -3 7 -20 -10 -16 -10 -23 4 -36 14 -14 20
-15 32 -4 20 16 20 34 2 50 -22 17 -9 41 18 34 31 -8 54 21 38 47 -17 26 -15
39 6 39 13 0 18 -8 17 -27 0 -31 31 -45 46 -21 12 18 11 24 -7 42 -20 20 -7
41 26 41 20 0 26 6 28 28 2 15 -1 27 -7 27 -6 0 -8 7 -5 15 4 8 18 15 34 15
16 0 30 7 34 16 4 10 13 13 25 9 11 -3 25 1 34 9 16 16 27 11 27 -11 0 -9 -7
-12 -17 -9 -27 8 -46 -8 -38 -33 7 -23 34 -28 52 -10 15 15 33 3 33 -22 0 -17
-3 -18 -20 -7 -16 10 -23 10 -36 -4 -9 -9 -14 -24 -11 -32 8 -20 53 -21 64 -1
12 21 33 3 27 -22 -5 -18 -9 -20 -24 -11 -14 9 -22 9 -34 -1 -20 -17 -20 -35
0 -52 8 -7 13 -21 11 -31 -3 -10 2 -25 10 -33 20 -21 9 -45 -21 -45 -34 0 -43
-30 -16 -52 12 -10 17 -18 11 -18 -14 0 -14 -33 0 -47 15 -15 4 -44 -14 -37
-9 3 -12 14 -9 29 5 30 -21 44 -45 24 -9 -8 -28 -14 -42 -14 -19 0 -27 -6 -29
-21 -4 -29 24 -38 47 -15 14 14 21 15 33 7 20 -15 1 -43 -25 -38 -10 2 -24 -1
-31 -8 -15 -11 -10 -50 6 -50 5 0 6 -5 3 -10 -12 -20 -35 -10 -35 15 0 18 -5
25 -20 25 -26 0 -37 -27 -21 -52 15 -24 6 -38 -25 -38 -29 0 -42 -25 -25 -52
13 -21 5 -42 -13 -35 -33 13 -56 -37 -28 -58 21 -17 4 -44 -26 -42 -23 2 -27
-2 -27 -23 0 -18 6 -26 23 -28 12 -2 24 3 28 11 3 9 14 12 30 9 13 -2 30 1 37
7 15 12 27 5 27 -15 0 -7 -8 -10 -17 -8 -28 7 -46 -10 -38 -35 7 -24 43 -29
51 -7 9 24 33 6 36 -27 3 -33 20 -39 61 -22 12 5 17 3 17 -8 0 -9 -10 -17 -22
-19 -14 -2 -24 -11 -26 -24 -4 -27 25 -40 47 -20 18 16 48 6 37 -12 -12 -20 6
-42 35 -42 16 0 29 5 29 11 0 5 5 7 10 4 6 -3 10 -15 10 -27 0 -16 -3 -18 -13
-9 -19 15 -53 -10 -44 -33 8 -20 46 -21 53 -1 5 11 11 12 24 5 24 -13 26 -13
46 7 10 10 29 16 44 15 18 -2 30 2 34 14 8 20 -10 44 -32 44 -12 0 -13 3 -4
12 16 16 15 43 -2 58 -22 17 -8 41 23 38 22 -3 27 1 29 25 3 22 -1 27 -18 27
-11 0 -23 -7 -26 -15 -5 -12 -10 -13 -20 -4 -19 16 -18 43 1 35 23 -8 45 4 45
25 0 25 -27 36 -52 20 -11 -7 -22 -10 -24 -8 -8 7 8 37 16 32 5 -3 15 -2 24 1
19 7 21 53 2 60 -7 3 -11 14 -9 28 3 12 -2 28 -11 35 -21 17 -9 41 20 41 30 0
43 28 22 44 -10 8 -14 21 -11 38 6 33 -27 57 -47 33 -7 -8 -16 -12 -21 -9 -16
10 -9 22 16 28 32 8 42 31 24 52 -8 9 -12 29 -11 45 2 19 -2 31 -12 35 -10 4
-16 18 -16 35 0 17 -6 32 -15 35 -23 9 0 44 25 37 29 -8 52 14 39 38 -5 10
-17 19 -26 19 -13 0 -14 3 -5 12 16 16 15 43 -2 58 -22 17 -8 39 22 37 31 -2
44 30 19 48 -12 9 -13 14 -2 28 19 27 42 12 37 -24 -4 -28 -2 -30 19 -27 27 4
38 37 16 49 -9 6 -13 18 -9 35 3 16 -1 29 -8 34 -11 7 -11 11 -1 24 7 8 18 13
25 10 8 -3 21 3 31 12 10 10 29 18 44 19 19 0 27 6 29 23 2 13 -3 24 -12 28
-18 7 -12 24 9 24 7 0 15 -12 17 -27 3 -26 6 -28 41 -26 44 3 50 -12 7 -20
-33 -7 -39 -27 -14 -48 12 -10 20 -10 35 -1 24 16 29 15 29 -3 0 -9 -9 -15
-24 -15 -32 0 -43 -30 -18 -50 14 -12 17 -21 11 -38 -6 -16 -3 -27 12 -40 23
-22 12 -38 -31 -44 -17 -2 -25 -9 -25 -23 0 -25 42 -34 51 -10 9 22 34 0 27
-24 -2 -10 3 -26 13 -35 18 -19 11 -32 -21 -38 -22 -3 -36 -58 -15 -58 7 0 9
-8 5 -19 -11 -35 5 -54 41 -48 40 7 44 0 8 -13 -38 -15 -30 -55 11 -56 51 -2
54 -3 57 -26 4 -27 32 -35 55 -16 9 7 25 12 35 10 31 -5 48 15 37 44 -11 31
-11 34 0 34 5 0 11 -10 13 -22 3 -26 43 -37 61 -19 6 6 21 11 34 11 27 0 41
25 26 49 -12 20 -2 53 13 43 6 -4 11 -18 10 -32 -1 -20 4 -25 24 -25 32 0 41
34 11 42 -16 4 -18 8 -9 23 6 9 8 25 5 34 -7 18 -42 22 -52 6 -7 -12 -25 -4
-25 11 0 5 11 9 24 9 30 0 44 34 24 58 -20 24 -12 55 11 43 22 -12 44 1 39 25
-4 24 -38 31 -50 9 -8 -13 -13 -14 -24 -4 -8 6 -12 19 -9 28 3 10 -1 26 -9 36
-18 25 -10 45 20 45 31 0 41 25 20 49 -9 10 -14 25 -10 35 7 19 16 20 32 4 8
-8 15 -8 27 2 21 17 19 39 -4 48 -17 6 -18 9 -5 26 16 22 29 14 29 -17 0 -17
7 -23 28 -25 21 -3 27 1 27 15 0 11 -5 24 -11 30 -6 6 -8 20 -4 32 5 18 9 19
26 8 17 -10 23 -9 38 10 14 16 21 19 30 10 15 -15 46 15 38 37 -8 20 -46 21
-53 2 -3 -8 -13 -12 -25 -9 -26 7 -6 33 27 33 13 0 27 7 32 16 11 19 92 27 92
9 0 -6 -12 -11 -27 -10 -22 0 -29 -5 -31 -23 -4 -27 23 -40 49 -23 15 9 19 8
19 -3 0 -7 -9 -16 -20 -19 -21 -5 -29 -50 -11 -61 5 -3 7 -14 4 -24 -3 -14
-12 -17 -32 -14 -33 5 -48 -20 -25 -39 12 -10 20 -10 34 -1 24 14 51 5 49 -17
-3 -31 1 -41 16 -41 11 0 13 -8 8 -31 -5 -25 -2 -31 15 -36 17 -4 20 -11 15
-39 -5 -32 -4 -34 21 -34 34 0 46 28 20 49 -12 10 -18 26 -16 44 3 21 -2 29
-19 36 l-23 8 21 12 c12 6 31 11 43 11 25 0 37 26 23 49 -11 17 -7 41 7 41 5
0 10 -12 12 -27 2 -20 9 -29 26 -31 30 -4 42 26 17 44 -15 11 -16 16 -5 29 7
8 23 15 35 15 26 0 40 34 20 50 -20 16 -7 49 16 43 10 -3 26 1 35 8 9 8 28 12
41 11 17 -3 26 2 30 16 4 17 8 18 35 8 25 -9 32 -8 43 7 7 10 19 15 29 11 12
-4 14 -10 6 -18 -14 -18 12 -51 34 -43 20 8 21 46 1 53 -23 9 1 33 25 27 14
-4 17 -10 11 -22 -12 -24 -2 -41 25 -41 19 0 24 5 24 24 0 14 -5 28 -10 31
-13 8 -3 25 15 25 8 0 11 -7 8 -19 -3 -13 3 -23 18 -31 19 -11 25 -10 39 7 20
26 47 10 42 -25 -5 -30 26 -42 44 -17 12 15 12 21 1 34 -8 9 -12 24 -10 33 4
14 8 15 29 6 18 -9 21 -14 13 -24 -16 -19 -4 -44 21 -44 15 0 20 7 20 24 0 14
-5 28 -10 31 -13 8 -3 25 16 25 8 0 14 -8 14 -19 0 -28 26 -47 45 -31 19 16
19 29 -2 52 -15 17 -15 18 5 18 15 0 22 -7 24 -27 2 -20 9 -29 26 -31 12 -2
24 3 28 11 3 8 13 13 23 10 13 -3 16 -12 13 -34 -3 -19 1 -31 10 -34 10 -4 13
-15 10 -31 -3 -19 -7 -22 -18 -13 -8 6 -21 9 -29 5 -23 -8 -18 -45 8 -56 12
-5 16 -9 10 -9 -7 -1 -13 -12 -13 -26 0 -20 5 -25 24 -25 29 0 41 24 20 40
-20 17 -19 54 2 46 9 -3 20 -6 25 -6 5 0 4 -9 -3 -20 -11 -16 -10 -23 5 -37
13 -14 21 -15 35 -7 26 16 27 51 2 59 -24 8 -17 25 10 25 13 0 20 -8 22 -27 2
-20 9 -29 26 -31 27 -4 40 23 24 49 -18 28 -14 39 12 39 34 0 53 26 38 51 -15
23 -7 40 14 32 11 -4 12 -9 4 -18 -9 -10 -7 -18 7 -32 11 -11 17 -29 15 -45
-3 -24 0 -28 22 -28 21 0 26 5 26 25 0 14 -6 28 -14 31 -8 3 -11 15 -8 29 3
16 -1 27 -11 31 -22 8 1 46 24 39 25 -8 42 19 34 55 -5 23 -3 30 9 30 10 0 14
-9 13 -27 -2 -22 3 -29 21 -31 27 -4 40 23 24 49 -16 24 -15 29 3 29 8 0 15
-8 15 -19 0 -10 7 -24 16 -31 12 -11 18 -11 30 2 13 13 14 20 5 37 -15 27 -7
41 24 41 13 0 27 5 30 10 12 20 35 10 35 -14 0 -25 30 -43 50 -31 16 10 12 45
-5 45 -16 0 -21 25 -7 34 5 3 18 2 30 -1 17 -4 20 -9 12 -18 -6 -7 -8 -20 -4
-29 9 -22 45 -20 51 3 4 17 8 18 25 8 16 -10 22 -9 36 9 16 19 19 19 32 5 8
-8 13 -23 12 -33 -2 -9 6 -22 18 -28 16 -9 19 -15 10 -24 -15 -18 -2 -46 21
-46 26 0 35 27 16 48 -9 10 -13 23 -8 30 11 18 40 4 34 -16 -2 -9 3 -26 11
-37 13 -17 18 -18 35 -7 27 16 31 15 31 -4 0 -10 -6 -14 -14 -11 -8 3 -22 0
-32 -8 -15 -11 -16 -15 -5 -29 16 -19 48 -21 53 -4 8 24 38 -1 38 -32 0 -16 5
-30 11 -30 7 0 9 -10 5 -24 -4 -16 0 -30 9 -40 8 -8 15 -26 15 -41 0 -14 6
-28 14 -31 8 -3 11 -15 8 -30 -3 -15 2 -32 12 -43 12 -13 14 -21 6 -26 -20
-12 -39 2 -33 25 6 24 -12 41 -34 33 -17 -7 -17 -53 0 -53 9 0 12 -10 9 -30
-3 -21 1 -32 11 -36 23 -8 -1 -44 -29 -44 -27 0 -38 -25 -20 -43 8 -8 12 -25
9 -39 -3 -14 0 -29 6 -32 18 -12 12 -36 -9 -36 -11 0 -28 -8 -38 -18 -9 -9
-26 -16 -36 -14 -25 5 -39 -12 -31 -37 7 -25 27 -27 45 -6 7 8 16 12 21 9 16
-9 10 -23 -12 -26 -27 -4 -44 -30 -35 -53 5 -14 14 -16 41 -12 25 4 35 2 35
-7 0 -9 -9 -12 -25 -8 -32 6 -45 -22 -21 -46 13 -14 20 -14 36 -4 27 17 40 15
40 -6 0 -13 -8 -18 -27 -17 -18 0 -29 -6 -31 -18 -4 -20 21 -32 46 -22 9 4 26
9 37 10 11 2 29 5 40 7 12 2 21 -3 23 -13 2 -13 -3 -15 -22 -12 -33 7 -46 -21
-22 -45 16 -16 18 -16 35 4 21 26 46 12 46 -26 0 -23 3 -25 43 -22 32 2 43 -1
40 -10 -3 -7 -11 -13 -19 -14 -35 -2 -39 -5 -39 -24 0 -26 27 -37 52 -21 24
15 41 5 35 -20 -3 -10 1 -23 9 -29 17 -15 54 -3 54 16 0 11 4 12 18 3 10 -6
17 -23 17 -38 0 -20 6 -27 23 -29 28 -4 42 26 19 43 -10 7 -14 20 -10 33 3 12
0 29 -7 37 -14 16 -5 35 16 35 11 0 12 -4 5 -18 -12 -22 3 -42 30 -42 24 0 31
26 13 45 -17 17 -11 35 12 35 10 0 13 -7 8 -24 -4 -16 0 -28 13 -37 10 -8 18
-25 18 -39 0 -21 4 -25 25 -22 14 1 26 6 28 11 1 4 16 6 32 3 21 -3 32 1 36
12 9 23 44 2 37 -23 -7 -28 36 -50 52 -27 18 23 50 8 50 -24 0 -18 5 -25 20
-25 25 0 34 42 11 51 -27 10 -6 34 31 34 34 0 35 1 31 35 -5 40 7 47 16 10 4
-16 13 -25 27 -25 25 0 36 27 21 51 -14 23 -5 50 14 42 17 -6 44 14 44 33 0 7
-6 19 -12 26 -7 7 -13 24 -13 38 0 19 -6 26 -24 28 -13 2 -28 -1 -33 -6 -5 -5
-20 -7 -34 -4 -18 3 -22 8 -14 17 11 13 4 45 -11 45 -5 0 -6 13 -3 29 5 25 3
29 -21 33 -35 7 -46 -19 -18 -42 28 -22 9 -50 -29 -43 -20 4 -28 0 -32 -15 -6
-17 -10 -18 -31 -9 -16 8 -20 15 -14 23 14 17 0 44 -22 44 -26 0 -35 -27 -16
-48 9 -10 12 -24 8 -36 -5 -14 -10 -16 -15 -8 -10 16 -31 15 -49 -2 -18 -18
-34 -8 -38 24 -5 34 -46 41 -57 9 -6 -15 -11 -18 -16 -11 -9 16 -53 15 -58 0
-6 -17 -28 0 -28 21 0 29 -28 47 -51 33 -25 -16 -29 -15 -29 3 0 9 6 15 13 14
27 -3 37 2 37 21 0 25 -27 37 -50 22 -21 -13 -38 -3 -34 21 1 10 -6 26 -16 35
-14 11 -16 19 -9 28 6 7 16 11 23 8 19 -7 48 19 40 39 -7 20 -42 23 -50 3 -3
-8 -15 -11 -30 -8 -18 3 -22 8 -15 15 15 15 14 42 -3 57 -21 16 -9 38 22 42
19 2 27 9 27 23 0 23 -34 34 -45 15 -12 -19 -39 -4 -34 17 4 13 14 19 32 18
20 0 27 5 27 20 0 25 -42 34 -51 10 -5 -12 -10 -13 -20 -5 -18 16 -6 42 16 35
23 -7 43 19 35 45 -3 11 -10 20 -14 20 -5 0 -6 11 -4 24 3 13 0 27 -6 30 -6 4
-11 16 -11 27 0 14 7 19 29 19 34 0 48 25 28 49 -19 22 -10 41 18 41 28 0 43
34 25 55 -16 19 -4 35 24 35 13 0 29 7 36 15 7 8 20 15 30 15 27 0 45 27 30
45 -13 15 -6 50 8 41 5 -3 21 2 36 9 32 17 51 9 51 -20 0 -21 31 -33 46 -18
12 12 1 43 -16 43 -8 0 -11 8 -8 20 4 15 11 18 30 14 15 -4 30 0 43 11 21 19
42 12 39 -13 -3 -33 1 -42 21 -42 26 0 37 27 21 52 -17 27 -1 49 24 30z
m-6890 -1184 c-4 -18 -18 -71 -31 -117 -13 -46 -24 -90 -24 -98 0 -8 -7 -13
-17 -11 -14 2 -19 17 -24 68 -3 36 -9 86 -14 112 -7 46 -6 47 21 53 16 4 40
11 54 15 40 13 42 12 35 -22z m3049 -95 c4 -49 9 -113 11 -143 l5 -55 -80 83
-81 82 36 47 c31 40 69 69 97 72 3 1 9 -38 12 -86z m-1491 -110 c10 -139 42
-219 98 -249 37 -19 59 -18 126 6 31 11 58 18 60 16 9 -9 -79 -70 -161 -111
-74 -38 -98 -45 -147 -45 -73 0 -105 25 -149 114 -29 59 -31 67 -20 107 18 70
90 189 134 221 21 15 42 28 46 28 4 0 10 -39 13 -87z m-963 -750 c52 -104 120
-253 120 -262 0 -5 -39 -16 -87 -25 -49 -10 -146 -31 -216 -48 -70 -17 -131
-28 -134 -24 -4 3 0 51 7 106 10 85 16 102 34 112 30 16 156 119 156 127 0 11
67 81 77 81 5 0 24 -30 43 -67z"/>
<path d="M8733 4114 c-3 -8 -12 -13 -21 -9 -8 3 -26 -2 -39 -10 -13 -9 -28
-13 -33 -10 -6 4 -20 3 -31 0 -18 -6 -20 -13 -16 -44 l6 -36 -15 28 c-15 28
-22 31 -48 21 -18 -7 -22 -54 -5 -54 23 0 1 -25 -27 -30 -30 -6 -34 -19 -19
-67 6 -17 2 -22 -16 -25 -12 -2 -27 -11 -33 -21 -9 -15 -7 -22 10 -35 16 -14
18 -21 10 -35 -8 -13 -7 -21 7 -34 18 -17 19 -17 36 3 14 18 20 19 34 9 10 -7
15 -19 12 -26 -7 -21 10 -41 31 -37 22 4 31 37 14 48 -21 13 -4 39 20 33 16
-4 18 -8 9 -20 -16 -18 12 -49 35 -40 17 7 22 42 6 52 -13 8 -1 35 16 35 9 0
14 -11 14 -29 0 -31 21 -46 39 -28 19 19 13 47 -11 47 -20 0 -20 1 -4 19 10
11 25 16 41 14 16 -4 27 1 36 14 8 13 19 18 35 15 29 -5 43 22 25 50 -14 22
-3 43 23 43 10 0 24 8 30 17 8 14 6 21 -9 32 -18 13 -22 13 -38 -1 -17 -16
-31 -12 -33 10 0 7 -2 20 -2 29 -1 9 -11 19 -21 23 -13 4 -17 12 -14 26 9 34
-41 55 -54 23z"/>
<path d="M8067 4053 c-12 -11 -7 -42 8 -50 19 -11 3 -36 -18 -27 -12 4 -15 13
-11 29 7 29 -23 42 -45 20 -13 -13 -14 -19 -2 -36 8 -14 9 -25 3 -31 -14 -14
-32 -1 -25 19 7 19 -22 44 -43 36 -21 -8 -17 -44 6 -50 19 -5 19 -6 3 -18 -23
-17 -40 -9 -39 18 1 16 -6 23 -22 25 -28 4 -39 -21 -22 -54 15 -28 10 -37 -14
-28 -9 4 -15 13 -12 20 14 36 -28 60 -53 31 -8 -11 -6 -18 9 -32 22 -20 18
-35 -9 -35 -14 0 -17 6 -13 25 6 31 -22 45 -46 22 -14 -15 -14 -18 1 -35 19
-20 13 -32 -14 -32 -13 0 -17 7 -16 27 2 22 -3 29 -21 31 -27 4 -40 -23 -24
-48 11 -18 7 -30 -10 -30 -4 0 -8 8 -8 18 0 10 -6 24 -12 31 -7 6 -13 24 -13
39 0 20 -6 28 -23 30 -28 4 -42 -26 -20 -42 11 -8 14 -21 11 -40 -4 -17 -1
-31 7 -36 17 -11 3 -30 -22 -30 -17 0 -18 3 -8 15 7 8 10 22 6 30 -7 19 -40
20 -55 1 -6 -7 -22 -11 -35 -9 -30 6 -45 -26 -21 -44 20 -14 45 -7 45 13 0 11
4 12 18 3 12 -8 17 -20 14 -39 -2 -15 1 -31 7 -34 21 -13 11 -35 -16 -38 -22
-2 -28 -8 -28 -28 0 -28 32 -41 46 -19 5 8 21 13 38 11 16 -2 32 1 35 7 11 17
36 0 36 -24 0 -31 30 -42 50 -18 9 11 25 17 43 15 21 -3 29 2 35 19 6 15 11
18 16 11 12 -19 47 -14 53 7 4 16 8 18 23 9 21 -13 50 4 50 29 0 12 3 12 16
-1 12 -12 20 -13 35 -6 10 6 19 15 19 19 0 5 9 7 20 4 11 -3 26 0 34 6 17 14
46 4 46 -16 0 -11 -7 -13 -29 -8 -33 7 -45 -5 -36 -35 8 -26 45 -26 52 0 5 18
6 18 21 3 9 -9 15 -26 14 -38 -4 -28 26 -41 47 -21 12 13 13 19 2 40 -16 29
-8 46 24 46 29 0 39 24 17 43 -19 16 -42 12 -42 -9 0 -8 -6 -11 -15 -8 -8 3
-14 17 -13 30 2 25 12 31 23 14 8 -13 45 6 45 24 0 8 -7 19 -15 26 -8 7 -15
25 -15 40 0 14 -3 30 -7 34 -5 4 -8 20 -8 34 0 16 -8 30 -20 37 -14 7 -19 18
-17 38 3 21 -1 27 -16 27 -10 0 -22 -3 -25 -7z"/>
<path d="M7016 3933 c-5 -12 0 -23 14 -35 12 -10 16 -19 10 -23 -17 -11 -11
-37 10 -42 23 -6 24 -8 10 -33 -14 -27 14 -54 41 -40 10 6 19 15 19 21 0 6 7
6 20 -1 12 -6 19 -19 17 -31 -1 -12 6 -26 16 -33 15 -9 21 -7 31 7 8 10 20 15
30 11 25 -10 48 14 35 37 -13 24 -39 25 -46 0 -4 -15 -8 -17 -28 -8 -18 9 -21
14 -11 29 8 14 7 21 -6 35 -16 16 -19 16 -37 -1 -22 -20 -72 -13 -52 7 17 17
13 47 -6 55 -11 4 -18 18 -18 32 0 31 -39 41 -49 13z"/>
<path d="M7087 3744 c-14 -14 -7 -43 15 -58 12 -9 17 -16 10 -16 -6 0 -12 -6
-12 -14 0 -9 -8 -12 -26 -8 -28 5 -46 -12 -37 -35 6 -15 50 -18 55 -3 2 5 13
7 25 4 18 -5 20 -9 10 -24 -9 -15 -15 -16 -31 -8 -26 14 -50 -15 -35 -43 13
-24 36 -24 50 0 7 11 20 16 30 14 28 -8 5 -43 -27 -43 -30 0 -41 -24 -23 -47
8 -8 12 -26 11 -39 -4 -32 30 -50 53 -28 14 15 14 18 0 40 -21 33 -19 47 7 41
44 -12 69 46 26 62 -14 5 -17 10 -10 15 17 10 15 46 -4 53 -10 3 -14 13 -11
25 3 11 -2 27 -11 36 -9 9 -17 31 -17 47 0 23 -5 31 -20 33 -12 2 -24 0 -28
-4z"/>
<path d="M7780 3480 c0 -11 7 -23 15 -26 11 -5 12 -11 4 -25 -5 -11 -14 -17
-20 -14 -14 9 -49 -5 -49 -20 0 -10 -5 -11 -24 -2 -17 8 -24 19 -23 37 2 19
-3 25 -18 25 -24 0 -33 -34 -14 -49 16 -12 23 -86 9 -86 -5 0 -10 10 -12 23
-4 26 -39 35 -57 13 -9 -11 -10 -20 -1 -36 13 -25 6 -40 -21 -40 -25 0 -36
-27 -21 -51 18 -28 15 -51 -5 -45 -25 8 -46 -8 -41 -30 4 -21 48 -33 48 -14 0
8 8 10 22 7 12 -3 29 -2 39 3 24 13 49 2 49 -21 0 -25 27 -36 51 -21 25 16 49
4 49 -24 0 -17 6 -24 20 -24 27 0 36 26 18 48 -22 24 -12 39 21 34 16 -2 32 1
35 7 13 20 36 12 36 -13 0 -28 26 -42 46 -25 18 14 18 24 0 42 -8 8 -11 19 -6
27 12 19 35 -1 35 -30 0 -29 38 -41 48 -16 8 19 -1 46 -15 46 -6 0 -5 6 2 15
15 18 30 11 30 -15 0 -24 15 -33 40 -25 23 7 26 28 6 45 -22 17 -9 38 20 32
19 -3 22 -7 13 -18 -15 -19 -4 -44 20 -44 26 0 39 40 18 52 -25 13 -9 38 24
38 38 0 50 27 22 50 -15 12 -18 21 -12 32 10 18 2 48 -13 48 -5 0 -9 10 -8 23
3 36 1 45 -15 51 -21 8 -45 -3 -45 -20 0 -8 -3 -14 -7 -14 -19 1 -30 17 -29
40 1 20 -4 25 -23 25 -30 0 -37 -17 -16 -39 19 -19 12 -36 -16 -36 -16 0 -19
4 -14 20 9 30 -12 52 -36 39 -23 -12 -25 -37 -4 -45 12 -5 13 -10 4 -20 -16
-19 -43 -18 -35 1 8 23 -4 45 -25 45 -25 0 -36 -27 -20 -52 14 -23 9 -33 -14
-24 -9 3 -13 11 -10 17 4 5 -1 19 -10 29 -9 10 -15 24 -14 32 4 29 -2 38 -26
38 -18 0 -25 -5 -25 -20z"/>
<path d="M3212 3098 c-16 -16 -15 -33 2 -48 20 -16 8 -43 -16 -36 -31 7 -48
-4 -48 -31 0 -16 7 -27 20 -30 18 -5 18 -6 3 -21 -9 -9 -27 -15 -40 -14 -19 3
-23 -1 -23 -23 0 -32 28 -45 46 -21 10 14 16 16 34 6 17 -9 19 -14 10 -26 -18
-20 -4 -44 24 -44 16 0 27 7 31 21 5 16 10 18 20 9 8 -7 23 -9 35 -5 24 8 27
50 4 63 -14 8 -14 10 1 22 8 7 18 10 22 7 10 -10 33 13 33 33 0 22 -28 34 -46
19 -15 -12 -34 -4 -34 15 0 9 9 12 25 8 33 -6 46 25 19 45 -17 12 -21 12 -35
-5 -13 -16 -18 -17 -32 -7 -10 7 -15 19 -11 29 6 15 -11 46 -25 46 -4 0 -12
-5 -19 -12z"/>
<path d="M8650 2575 c-90 -16 -108 -22 -137 -48 -133 -119 310 -398 1346 -848
112 -49 207 -89 210 -89 3 0 -59 35 -139 78 -308 166 -491 284 -604 392 -84
79 -122 143 -110 183 26 86 149 125 449 142 146 9 597 -15 870 -45 50 -6 171
-19 270 -30 99 -11 248 -29 330 -40 229 -30 231 -30 220 -25 -17 8 -364 85
-475 105 -151 28 -502 84 -745 119 -730 106 -1267 144 -1485 106z"/>
<path d="M2917 3 c1608 -2 4238 -2 5845 0 1608 1 293 2 -2922 2 -3215 0 -4530
-1 -2923 -2z"/>
</g>
</svg>
