<svg id="Layer_1" data-name="Layer 1" xmlns="http://www.w3.org/2000/svg" viewBox="0 0 786.81 332.11"><defs><style>.cls-1{fill:#033472;}.cls-2,.cls-4{fill:#fff;}.cls-2{stroke:#000;}.cls-10,.cls-11,.cls-12,.cls-13,.cls-14,.cls-15,.cls-16,.cls-17,.cls-18,.cls-19,.cls-2,.cls-5{stroke-miterlimit:10;}.cls-3{fill:#eaeaea;}.cls-10,.cls-11,.cls-12,.cls-13,.cls-14,.cls-15,.cls-16,.cls-17,.cls-18,.cls-19,.cls-5{fill:none;}.cls-5{stroke:#acd3ec;}.cls-6{fill:#1b1464;}.cls-7{fill:#ceacea;}.cls-8{fill:#acd3ec;}.cls-9{fill:#8b8b9b;}.cls-10{stroke:#8b8b9b;}.cls-11{stroke:#5e5e60;}.cls-12{stroke:#636363;}.cls-12,.cls-13,.cls-14,.cls-15,.cls-17{stroke-width:2px;}.cls-13{stroke:#7b7b7c;}.cls-14{stroke:#676768;}.cls-15{stroke:#5b5b5b;}.cls-16{stroke:#1b1b20;}.cls-17{stroke:#824ecc;}.cls-18{stroke:#783faa;}.cls-19{stroke:#8650cc;}.cls-20{fill:#010911;}</style></defs><title>Logo</title><polygon class="cls-1" points="0 31.28 0 296.5 27.54 296.5 27.54 186.36 62.32 186.36 62.32 296.5 94.2 296.5 94.2 31.28 59.42 31.28 59.42 154.47 26.09 154.47 24.64 31.28 0 31.28"/><path class="cls-1" d="M313.74,73.54H267.37V198.18H289.1V150.35h13l27.54,47.83h30.43Zm-4.5,59.21H285.46c-2.71,0,4-37.55,4-40.25h0c0-5.17-2.55-3.11,0,0a5.19,5.19,0,0,1,3.65,3.14c.3.73.62,1.45.94,2.16,6.66,9,13.87,17.71,19.55,27.43A5,5,0,0,1,309.24,132.76Z" transform="translate(-157.22 -42.26)"/><polygon class="cls-1" points="293.09 31.28 293.09 155.92 320.62 155.92 320.62 105.2 362.65 155.92 385.84 155.92 333.67 87.81 375.69 31.28 339.46 31.28 316.27 72.59 316.27 31.28 293.09 31.28"/><polygon class="cls-1" points="110.14 187.81 110.14 296.5 189.85 296.5 189.85 266.07 128.99 266.07 128.99 242.15 172.46 242.15 172.46 224.04 128.99 229.15 128.99 204.7 188.34 206.26 188.41 174.76 110.14 174.76 110.14 187.81"/><path class="cls-1" d="M428.9,282.41l21-23.05c1.47-5.39,3.67-16-.18-24.1-6.92-14.47-26.6-17.19-41.73-17.81a236.74,236.74,0,0,0-52.47,3.7V338.54h39.13V293.61L425,338.54h43.68C458.9,319.83,438.73,301.12,428.9,282.41Zm-46.9-10c-9.08,4.08,2-36.7-4.05-45.07-5.54-7.68-3,25.76-2.35,16.56.09-1.33-1.34,10-.6,9.2-.36-3.09,4.74-19,8.49-18.08a5.83,5.83,0,0,1,2.64-.14c8.86,1.6-.92-2.08,7.45,1.34,6.23,2.54,28.89,5.61,28.73,13.26C422.13,259,389.7,268.94,382,272.4Z" transform="translate(-157.22 -42.26)"/><path class="cls-1" d="M436.93,224.27" transform="translate(-157.22 -42.26)"/><path class="cls-1" d="M423.13,115.14h13.11c.63-.44.4-7,0-16.57-.36-8.7.85-12.66,0-13.25C434.8,83.37,424,69.18,406.94,69.11c-19.2-.08-29.15,15.5-29.58,16.21-5.06,7.34-18.3,28.66-17.18,58.36,1,25.44,8,37.44,13.27,45,5.35,2.78,20,13.62,34.44,13.92a69.69,69.69,0,0,0,33.4-7.78c5.38-2.9.1-9.33,0-15.24-.15-9.08.34-12.71,0-12.89H423.13v12.89c-3.31,5.17-12.18.69-18.13,0-7.28-.85-11.23-10.26-11.68-11-4.86-15.84-3.78-15.9-4.51-27.68-1.16-18.58,4.14-33.4,7.63-42.35a15.53,15.53,0,0,1,15.27-7.37c7.68,1.07,11.14,7.74,11.42,8.29Z" transform="translate(-157.22 -42.26)"/><path class="cls-1" d="M538.87,244.65V222.73c-2.39-2.4-19.08-18.58-44.27-16.69-20,1.5-25.21,2.29-29.89,12.91-7.47,17,3.31,46.46,11.16,46.56.66.34,44.64,12.1,45.63,24.37.95,11.78-8,19-8.68,19.55-6,6.26-15,7.53-21.08,3.67-6.27-4-6.79-11.64-6.84-12.51a28.28,28.28,0,0,0-13.82-.82l-12.23,2.33,14.54,23.3c4.23,3,16,12.31,29.51,13.37a56.19,56.19,0,0,0,36-9.9c1.27-1.23,12.32-12.36,9.92-28-1.53-10-7.86-23.81-10.1-25.89,0-1.52,0,0-4.72-5.36-3.07-3.49-43.21-21.76-43.21-21.76s-5.93-20.95,7.49-22.68C514.28,223.1,537.6,243.39,538.87,244.65Z" transform="translate(-157.22 -42.26)"/><path class="cls-2" d="M274.17,450" transform="translate(-157.22 -42.26)"/><path class="cls-3" d="M523.8,348.42h0a2.8,2.8,0,0,1-5.06,0,2.29,2.29,0,0,1-1.65,1A2.51,2.51,0,0,1,514.9,347l-2.77-1.17.82,4.4-1.64-.64-.85-4.58-3.12-1.12L509.4,355l-2-.76-2-11.65-11.7-4.6,30,10.42,0,0Z" transform="translate(-157.22 -42.26)"/><path class="cls-3" d="M523.75,346.1a3,3,0,0,1,0,2.32l0,0-6.28-5a1.75,1.75,0,0,1,1.58-.56,1.87,1.87,0,0,1,1.46,2A2.77,2.77,0,0,1,523.75,346.1Z" transform="translate(-157.22 -42.26)"/><path class="cls-4" d="M523.8,348.42v0l0,0Z" transform="translate(-157.22 -42.26)"/><path class="cls-3" d="M523.76,348.4l-30-10.42-.07-.1-10.8,4.47L471.3,344.1l-.07-.75,5.24-7.7-10.67,4.76q-.34,2.32-.68,4.63l-2.17.33.42-3.89-2.42,1.07-.29,3.17-2.23.34.05-2.08-3.35,2a1.88,1.88,0,0,1,.09.58l-7.85,1.2L477,332.11,484.85,321l10.55,4.86,9.23,7.34-.46.58-8.89,1.56,10.67,4.56,3.63-2.77,1.74,1.38-3,2.44,2.42,1,2.37-2,1.78,1.42-1.46,1.43,3.68,1.09a2.09,2.09,0,0,1,.33-.48Z" transform="translate(-157.22 -42.26)"/><path class="cls-4" d="M514.92,341.38l2.56,2a2.09,2.09,0,0,0-.33.48l-3.68-1.09Z" transform="translate(-157.22 -42.26)"/><polygon class="cls-3" points="359.89 296.97 357.7 299.12 355.92 297.7 357.87 296.04 359.89 296.97"/><path class="cls-3" d="M516.26,334.41l-4.95,4.1-1.74-1.38,4.19-3.19Z" transform="translate(-157.22 -42.26)"/><polygon class="cls-4" points="355.92 297.7 353.55 299.74 351.13 298.69 354.09 296.25 355.92 297.7"/><path class="cls-3" d="M515.56,317.09l-1.34,1.62-10.87-2.32-8,9.46L484.85,321h0l1.68-8.91,3-2.36.41-2.17L489.6,305a2.81,2.81,0,0,1,2.94-1.11c1.1.28,1.18.72,1.36,1.89-.63.61-.5,1.73-1.13,2.34l-.41,2.17,1.78,3.3-1.68,8.91L500,314l-2.5-9.42,1.27-2.19,3,9.7,1.73-1.91-1.73-5.35,1.5-1.57,1.86,4.67,2.26-2a2.86,2.86,0,0,1,.82-3.59,2.48,2.48,0,0,1,2.75.1,2.29,2.29,0,0,1,1.77-2.25c1.12-.18,3.12,1.85,3.11,2.58a2,2,0,0,1-1.86,1.88,3.44,3.44,0,0,1-.07,2.94,3,3,0,0,1-3.48,1.36l-2,2.21,4.13.81-1.11,1.32-4.3-.84-2,2.55Z" transform="translate(-157.22 -42.26)"/><path class="cls-3" d="M512.58,328.62c.16,1.21-.23,1.45-1.25,2.05-.81-.41-1.79.13-2.6-.28l-2.16.38-1.93,2.41-9.23-7.34,7.32-.29,3.31,2.18,2.16-.38,2.25-1.3A3.08,3.08,0,0,1,512.58,328.62Z" transform="translate(-157.22 -42.26)"/><path class="cls-4" d="M509.57,337.12l-3.63,2.77-10.67-4.56,8.89-1.56.46-.58Z" transform="translate(-157.22 -42.26)"/><path class="cls-3" d="M493.71,338l4.82,7.34L498,349.2,499.2,351l2,1.52a3,3,0,0,1-1.32,3c-1,.63-1.32.37-2.25-.31,0-.9-.83-1.57-.8-2.47l-1.19-1.81-3.51-1-4.89-7.44.39,11.52,8.2,4.69.6,2.47-8.72-4.55.07,2.61,4.88,2.43,0,2.21L488.17,362l-.24,3.07a2.76,2.76,0,0,1,1.87,3.11,2.66,2.66,0,0,1-2,2,2.35,2.35,0,0,1,.29,2.88c-.66,1-3.47,1-4,.52a2.06,2.06,0,0,1,0-2.69,3.18,3.18,0,0,1-2-2.09,3.28,3.28,0,0,1,1.54-3.53c0-1-.08-2-.12-3l-3.48,2.5L480,363l3.62-2.6-.31-3.28-8.77,6.32-.16-2.12,9.28-6.47q-.41-6.25-.82-12.49l10.8-4.47Z" transform="translate(-157.22 -42.26)"/><path class="cls-3" d="M482.85,342.34l-5,5.64-3.83.95-1.27,1.87-.7,2.58a2.92,2.92,0,0,1-3.25-.19c-.94-.73-.83-1.18-.52-2.36.85-.31,1.18-1.42,2-1.73l1.27-1.87-.28-3.12Z" transform="translate(-157.22 -42.26)"/><path class="cls-3" d="M484.85,321,477,332.11l-7.92-3.65-1.49-3.58-1.92-.89-2.48-.19a3.05,3.05,0,0,1-.35-3.23c.51-1.06,1-1,2.08-1,.42.77,1.5.88,1.92,1.66l1.92.89,3.5-1.08,7.92,3.65-6.09-9.56-9.38.49-1.74-1.77,9.76-.9-1.37-2.17-5.4.59-1.12-1.87,4.8-.87-1.33-2.73a2.6,2.6,0,0,1-3.16-1.62,2.79,2.79,0,0,1,.74-2.78,2.24,2.24,0,0,1-1.68-2.28c.09-1.17,2.45-2.77,3.14-2.6a2,2,0,0,1,1.31,2.31,3,3,0,0,1,2.72.71,3.3,3.3,0,0,1,.45,3.83l1.6,2.48,1.73-4,1,1.42-1.8,4.18,1.9,2.61,4.36-10.13,1.2,1.71L477,312.3c2.32,3.38,5.48,5.32,7.8,8.69h0Z" transform="translate(-157.22 -42.26)"/><path class="cls-4" d="M476.47,335.65l-5.24,7.7.07.75-6.18.94q.34-2.32.68-4.63Z" transform="translate(-157.22 -42.26)"/><path class="cls-3" d="M477,332.11l-29.6,15.63h-.07a3.24,3.24,0,0,1,1.08-3.35,2.9,2.9,0,0,1,2.46-.43,2.49,2.49,0,0,1,.5-1.91,2.4,2.4,0,0,1,3.25.05l2.77-1.25-3.59-2.45,1.59-.77,3.73,2.55,3-1.54-9-6.18,1.93-1,9.36,6.62Z" transform="translate(-157.22 -42.26)"/><path class="cls-3" d="M465.12,345c-.26,1.78-.52,3.56-.78,5.33l-2.1,1.53.71-6.53Z" transform="translate(-157.22 -42.26)"/><polygon class="cls-4" points="306.15 299.22 305.73 303.11 303.44 303.46 303.73 300.29 306.15 299.22"/><polygon class="cls-3" points="303.44 303.46 303.19 306.07 301.13 306.93 301.21 303.8 303.44 303.46"/><path class="cls-4" d="M458.48,344l-.05,2.08-3.21.49a1.88,1.88,0,0,0-.09-.58Z" transform="translate(-157.22 -42.26)"/><path class="cls-3" d="M455.22,346.55a1.9,1.9,0,0,1-.73,1.56,1.77,1.77,0,0,1-2.38-.28,2.83,2.83,0,0,1-3.17,1.51,2.75,2.75,0,0,1-1.62-1.58l0,0Z" transform="translate(-157.22 -42.26)"/><path class="cls-4" d="M447.37,347.75l0,0h0Z" transform="translate(-157.22 -42.26)"/><path class="cls-5" d="M484.85,321l1.68-8.91,3-2.36.41-2.17L489.6,305a2.81,2.81,0,0,1,2.94-1.11c1.1.28,1.18.72,1.36,1.89-.63.61-.5,1.73-1.13,2.34l-.41,2.17,1.78,3.3-1.68,8.91L500,314l-2.5-9.42,1.27-2.19,3,9.7,1.73-1.91-1.73-5.35,1.5-1.57,1.86,4.67,2.26-2a2.86,2.86,0,0,1,.82-3.59,2.48,2.48,0,0,1,2.75.1,2.29,2.29,0,0,1,1.77-2.25c1.12-.18,3.12,1.85,3.11,2.58a2,2,0,0,1-1.86,1.88,3.44,3.44,0,0,1-.07,2.94,3,3,0,0,1-3.48,1.36l-2,2.21,4.13.81-1.11,1.32-4.3-.84-2,2.55,10.41,2-1.34,1.62-10.87-2.32-8,9.46" transform="translate(-157.22 -42.26)"/><path class="cls-5" d="M523.83,348.43a2.8,2.8,0,0,1-5.06,0,2.29,2.29,0,0,1-1.65,1A2.51,2.51,0,0,1,514.9,347l-2.77-1.17.82,4.4-1.64-.64-.85-4.58-3.12-1.12L509.4,355l-2-.76-2-11.65-11.7-4.6" transform="translate(-157.22 -42.26)"/><path class="cls-5" d="M523.8,348.44v0a3,3,0,0,0,0-2.32,2.77,2.77,0,0,0-3.24-1.28,1.87,1.87,0,0,0-1.46-2,1.75,1.75,0,0,0-1.58.56,2.09,2.09,0,0,0-.33.48l-3.68-1.09,1.46-1.43,2.19-2.15-2-.93L513.14,340l-2.37,2-2.42-1,3-2.44,4.95-4.1-2.5-.48-4.19,3.19-3.63,2.77-10.67-4.56,8.89-1.56.46-.58,1.93-2.41,2.16-.38c.81.41,1.79-.13,2.6.28,1-.61,1.41-.84,1.25-2.05a3.08,3.08,0,0,0-2.13-2.56l-2.25,1.3-2.16.38-3.31-2.18-7.32.29" transform="translate(-157.22 -42.26)"/><path class="cls-5" d="M493.64,337.88l.07.1,4.82,7.34L498,349.2,499.2,351l2,1.52a3,3,0,0,1-1.32,3c-1,.63-1.32.37-2.25-.31,0-.9-.83-1.57-.8-2.47l-1.19-1.81-3.51-1-4.89-7.44.39,11.52,8.2,4.69.6,2.47-8.72-4.55.07,2.61,4.88,2.43,0,2.21L488.17,362l-.24,3.07a2.76,2.76,0,0,1,1.87,3.11,2.66,2.66,0,0,1-2,2,2.35,2.35,0,0,1,.29,2.88c-.66,1-3.47,1-4,.52a2.06,2.06,0,0,1,0-2.69,3.18,3.18,0,0,1-2-2.09,3.28,3.28,0,0,1,1.54-3.53c0-1-.08-2-.12-3l-3.48,2.5L480,363l3.62-2.6-.31-3.28-8.77,6.32-.16-2.12,9.28-6.47q-.41-6.25-.82-12.49" transform="translate(-157.22 -42.26)"/><path class="cls-5" d="M447.3,347.78a3.24,3.24,0,0,1,1.08-3.35,2.9,2.9,0,0,1,2.46-.43,2.49,2.49,0,0,1,.5-1.91,2.4,2.4,0,0,1,3.25.05l2.77-1.25-3.59-2.45,1.59-.77,3.73,2.55,3-1.54-9-6.18,1.93-1,9.36,6.62,12.62-6" transform="translate(-157.22 -42.26)"/><path class="cls-5" d="M447.32,347.75h0a2.75,2.75,0,0,0,1.62,1.58,2.83,2.83,0,0,0,3.17-1.51,1.77,1.77,0,0,0,2.38.28,1.9,1.9,0,0,0,.73-1.56,1.88,1.88,0,0,0-.09-.58l3.35-2-.05,2.08-.08,3.13,2.07-.85.24-2.61.29-3.17,2.42-1.07-.42,3.89-.71,6.53,2.1-1.53c.26-1.78.52-3.56.78-5.33q.34-2.32.68-4.63l10.67-4.76-5.24,7.7.07.75.28,3.12-1.27,1.87c-.85.31-1.18,1.42-2,1.73-.31,1.18-.41,1.63.52,2.36a2.92,2.92,0,0,0,3.25.19l.7-2.58,1.27-1.87,3.83-.95,5-5.64" transform="translate(-157.22 -42.26)"/><path class="cls-5" d="M477,332.11l-7.92-3.65-1.49-3.58-1.92-.89-2.48-.19a3.05,3.05,0,0,1-.35-3.23c.51-1.06,1-1,2.08-1,.42.77,1.5.88,1.92,1.66l1.92.89,3.5-1.08,7.92,3.65-6.09-9.56-9.38.49-1.74-1.77,9.76-.9-1.37-2.17-5.4.59-1.12-1.87,4.8-.87-1.33-2.73a2.6,2.6,0,0,1-3.16-1.62,2.79,2.79,0,0,1,.74-2.78,2.24,2.24,0,0,1-1.68-2.28c.09-1.17,2.45-2.77,3.14-2.6a2,2,0,0,1,1.31,2.31,3,3,0,0,1,2.72.71,3.3,3.3,0,0,1,.45,3.83l1.6,2.48,1.73-4,1,1.42-1.8,4.18,1.9,2.61,4.36-10.13,1.2,1.71L477,312.3c2.32,3.38,5.48,5.32,7.8,8.69h0" transform="translate(-157.22 -42.26)"/><polygon class="cls-4" points="424.77 265.28 414.41 270.21 411.37 266.74 406.72 266.54 410.91 273.73 406.1 273.35 402.31 266.53 401.82 266.51 401.97 262.82 402.55 262.87 408.38 256.8 412.09 257.09 406.43 263.17 411.66 263.58 414.57 260.55 424.77 265.28"/><polygon class="cls-6" points="397.61 273.52 397.24 273.22 397.49 273.29 397.61 273.52"/><polygon class="cls-6" points="397.54 273.31 397.49 273.29 397.46 273.24 397.54 273.31"/><polygon class="cls-4" points="386.68 289 385.35 290.61 384.04 286.43 386.68 289"/><polygon class="cls-4" points="403.75 243.79 401.75 248.08 394 249.06 393.86 249.38 390.56 247.6 390.62 247.48 386.87 239.86 388.42 236.55 392.23 244.02 394.41 239.34 392.54 235.53 400.51 227.87 401.63 239.26 397.3 240.78 395.52 245 403.75 243.79"/><path class="cls-4" d="M541.63,309.1l-1.24,3.74,1.23-3.78-4.33,3.3.65,7.84-.12.35,5.45-6.22Zm4-5,3.43-1.9-3.45,1.95,5.5.43,4.81-6.19.32-.18-8.31,1Zm10.78,27.56-.68,11-8.37-8.13,2-3.72-1.54-4.35-3.9,4.73-2.64-2.57-.12-.38,5-5.85-1.42-4-8,5.8-2.87-9.14-3.32,2.53-.17,8.25-2.92.75,0-6.67-4.12,3.14-.09,4.21-10.69,3.16L516.88,320l4.58.61,3.55-2.92-6.37-2.13,1-2.48,1.22-.93,7.39,2.64,4.65-3.85-9.29-7.73,8.94-4.59-3.07-2.91-8.46.93-.32-.3-1-2.43,7-.88-3.8-3.61-4.23.47-4.88-10,11.26,2.8.12,4.56,3.49,3.08,1.15-6.67L532,284l1.51,1.43L532,293.05l3.18,2.79L540,285.67l6.1,7.84,1.7-3.65,3.3,1.77-1.47,3.53,10,1-4,8.61,3.63.29-.16,3.69-3.73-.15,3.31,10-10.14-1.24,1.26,4,7.9,3.28,1.11,3.52-7.85-3.12,1.56,5Zm-1.93-16.22.37.3-.13-.23.05,0-.08-.06-3.85-7.06-5.5-.43,1.64,5.22Zm-12.38-13,2.29-4.92L540.28,291l-.05-.32,0,.18-.11-.17.06.38-1.56,7.71Zm-7.54,4.94,5.38-2.07-4-3.8-7.89,1.7Z" transform="translate(-157.22 -42.26)"/><polygon class="cls-4" points="373.16 283.68 373.16 283.85 370.23 286.08 370.24 284.44 373.16 283.68"/><polygon class="cls-6" points="383.01 248.45 383.06 248.77 382.97 248.63 383.01 248.45"/><polygon class="cls-6" points="382.97 248.63 382.93 248.84 382.87 248.46 382.97 248.63"/><polygon class="cls-4" points="362.42 270.8 361.42 273.28 359.86 272.76 362.42 270.8"/><polygon class="cls-4" points="374.78 241.78 372.55 241.33 372.8 239.9 374.78 241.78"/><polygon class="cls-4" points="362.47 251.62 363.5 254.06 361.12 251.79 362.47 251.62"/><polyline class="cls-5" points="382.76 243.41 388.86 251.25 390.56 247.6 390.62 247.48 386.87 239.86 388.42 236.55 392.23 244.02 394.41 239.34 392.54 235.53 400.51 227.87 401.63 239.26 397.3 240.78 395.52 245 403.75 243.79 401.75 248.08 394 249.06 393.86 249.38 392.39 252.9 402.35 253.93"/><polyline class="cls-5" points="383.06 248.77 387.15 255.31 384.86 260.23"/><line class="cls-5" x1="382.87" y1="248.46" x2="382.97" y2="248.63"/><polyline class="cls-5" points="388.39 261.88 390.69 256.96 399 255.98"/><polyline class="cls-5" points="402.35 253.93 398.34 262.54 401.97 262.82 402.55 262.87 408.38 256.8 412.09 257.09 406.43 263.17 411.66 263.58 414.57 260.55 424.77 265.28 414.41 270.21 411.37 266.74 406.72 266.54 410.91 273.73 406.1 273.35 402.31 266.53 401.82 266.51 398.09 266.36 401.39 276.39"/><polyline class="cls-5" points="398.77 256.05 398.68 256.16 393.87 262.35 388.37 261.92"/><line class="cls-5" x1="397.49" y1="273.29" x2="397.61" y2="273.52"/><polyline class="cls-5" points="388.12 265.75 393.62 266.18 397.46 273.24"/><polyline class="cls-5" points="398.49 300.48 389.98 292.62 390.13 292.34 392.13 288.62 390.59 284.26 386.68 289 385.35 290.61 384.04 286.43 383.92 286.05 388.96 280.2 387.54 276.24 379.52 282.04"/><polyline class="cls-5" points="401.51 285.95 393.66 282.84 395.22 287.8 399.17 289.44 398.49 300.48"/><polyline class="cls-5" points="401.39 276.39 391.25 275.15 392.51 279.15 400.41 282.43"/><line class="cls-5" x1="400.41" y1="282.43" x2="401.51" y2="285.95"/><polyline class="cls-5" points="397.54 273.31 397.49 273.29 397.24 273.22 389.76 270.97 388.12 265.75"/><polyline class="cls-5" points="384.41 266.84 386.05 272.06 380.6 278.28"/><polyline class="cls-5" points="355.38 288.27 359.66 277.72 364.25 278.33 367.79 275.41 361.42 273.28 359.86 272.76 362.42 270.8 363.64 269.87 371.04 272.51 375.69 268.66 366.4 260.93"/><polyline class="cls-5" points="379.52 282.04 376.66 272.9 373.34 275.43 373.16 283.68 373.16 283.85 370.23 286.08 370.24 284.44 370.28 277.76 366.16 280.9 366.07 285.11 355.38 288.27"/><polyline class="cls-5" points="380.73 278.08 380.72 277.93 380.07 270.09 384.39 266.79"/><polyline class="cls-5" points="382.7 263.1 377.32 265.17 370.81 261"/><polyline class="cls-5" points="367.8 240.36 367.92 244.92 371.41 248 372.55 241.33 372.8 239.9 374.78 241.78 376.29 243.22 374.83 250.79 378.01 253.59 382.76 243.41"/><line class="cls-5" x1="356.54" y1="237.56" x2="367.8" y2="240.36"/><polyline class="cls-5" points="366.4 260.93 375.34 256.34 372.27 253.43 363.81 254.36 363.5 254.06 361.12 251.79 362.47 251.62 369.45 250.74 365.65 247.13 361.42 247.6 356.54 237.56"/><polyline class="cls-5" points="370.81 261 378.7 259.3 382.7 263.1"/><polyline class="cls-5" points="384.86 260.23 381.37 256.55 382.93 248.84 382.97 248.63 383.01 248.45"/><path class="cls-4" d="M425.93,327.44l0,0,6.53-6.3-2.37-9.2h-8.82l-2.6,10.15Zm-9.11-33.15a1.44,1.44,0,0,1,2-.47l4.54,4.72v-4.72l-3.07-6.14,4.33-6.93,5.3,6.61-3.07,5.51v5.51l5.86-4.09a1.67,1.67,0,0,1,1.67,1.1,2.05,2.05,0,0,1-.7,2.36L427.29,302l-.14,5.83h2.23c-.46-2.3.63-4.46,2.23-5a3.26,3.26,0,0,1,3.39,1,4,4,0,0,1,1.91,2.93,3.85,3.85,0,0,1-3.35,3.91l.58,2.27,4.42-1.45,3.56-8.76a1.51,1.51,0,0,1,1.35-.85,1.92,1.92,0,0,1,1.33,2.23l-2.75,6.24,4-1.32,4.37-5,7.1,2.75-4.15,7.59-5.55-1.79-4.69,1.54,5.12,5.21a2.07,2.07,0,0,1-.34,2.26,1.56,1.56,0,0,1-2.34-.24l-5.41-5.77-5,1.47.62,2.42a3.75,3.75,0,0,1,3.47.7,4.82,4.82,0,0,1,1.53,4.27c-.14.14-2,1.84-4,1.09a4,4,0,0,1-1.78-1.38l-1.59,1.53,3,4,8.54.05a1.66,1.66,0,0,1,1.25,1.49,1.72,1.72,0,0,1-1.26,1.84l-6.17-.26,2.72,3.59,5.87,2.42.7,8.44L440.2,346l-.84-6.44-3.17-4.19-2.1,7.41a1.55,1.55,0,0,1-1.91.39,2,2,0,0,1-.83-2.31l2.43-7.94-3.25-4.53-1.7,1.64a4.58,4.58,0,0,1,1.2,5.47,3.42,3.42,0,0,1-3.16,1.72,3.25,3.25,0,0,1-3.14-.83,4.4,4.4,0,0,1,.3-5.43l-1.75-1.3L419.76,334l2.34,9.27a1.87,1.87,0,0,1-.53,1.64,1.6,1.6,0,0,1-2.3-.72l-1.5-6.76-2.3,3.95-.42,7-7,3.11-1.21-8.81,5.25-2.7,2.68-4.61-6.89-.21a1.93,1.93,0,0,1-1-2,1.73,1.73,0,0,1,1.92-1.53l7.43.42,3-4.78-1.87-1.38a6.77,6.77,0,0,1-3.8,1.27c-2.1,0-3.6-1.89-4.15-2.3-.85-1.66-.33-2.56.73-3.9,1.23-1.56,3.08-2.12,4.74-.84l.75-2.2-4.3-1.86-7.53,4.55A1.44,1.44,0,0,1,402,320a1.9,1.9,0,0,1,.33-2.3l5.54-3.09-3.91-1.69-6.18,1-4.18-7L401,303.7l3.46,5.21,4.56,2-1.28-7.64a1.73,1.73,0,0,1,1.6-1.24,1.76,1.76,0,0,1,1.62,1.46l1.21,8.29,4.77,2.24.8-2.35a4.08,4.08,0,0,1-3.37-4.16,3.72,3.72,0,0,1,3.75-2.63,3.86,3.86,0,0,1,3.21,3h2.09v-5.2l-6.46-6.3A1.91,1.91,0,0,1,416.82,294.29Z" transform="translate(-157.22 -42.26)"/><path class="cls-5" d="M431.62,302.79a3.26,3.26,0,0,1,3.39,1" transform="translate(-157.22 -42.26)"/><path class="cls-5" d="M424.64,280.75l5.3,6.61-3.07,5.51v5.51l5.86-4.09a1.67,1.67,0,0,1,1.67,1.1,2.05,2.05,0,0,1-.7,2.36" transform="translate(-157.22 -42.26)"/><path class="cls-5" d="M435,303.79a4,4,0,0,1,1.91,2.93,3.85,3.85,0,0,1-3.35,3.91l.58,2.27,4.42-1.45,3.56-8.76a1.51,1.51,0,0,1,1.35-.85,1.92,1.92,0,0,1,1.33,2.23l-2.75,6.24,4-1.32,4.37-5,7.1,2.75-4.15,7.59-5.55-1.79-4.69,1.54,5.12,5.21a2.07,2.07,0,0,1-.34,2.26,1.56,1.56,0,0,1-2.34-.24l-5.41-5.77-5,1.47.62,2.42a3.75,3.75,0,0,1,3.47.7,4.82,4.82,0,0,1,1.53,4.27" transform="translate(-157.22 -42.26)"/><polyline class="cls-5" points="272.86 269.52 272.89 269.65 275.26 278.86 275.31 279.05"/><path class="cls-5" d="M440.82,324.38c-.14.14-2,1.84-4,1.09a4,4,0,0,1-1.78-1.38l-1.59,1.53,3,4,8.54.05a1.66,1.66,0,0,1,1.25,1.49,1.72,1.72,0,0,1-1.26,1.84l-6.17-.26,2.72,3.59,5.87,2.42.7,8.44L440.2,346l-.84-6.44-3.17-4.19-2.1,7.41a1.55,1.55,0,0,1-1.91.39,2,2,0,0,1-.83-2.31l2.43-7.94-3.25-4.53-1.7,1.64a4.58,4.58,0,0,1,1.2,5.47,3.42,3.42,0,0,1-3.16,1.72" transform="translate(-157.22 -42.26)"/><polyline class="cls-5" points="275.42 278.71 275.26 278.86 268.73 285.15"/><path class="cls-5" d="M426.89,337.2a3.25,3.25,0,0,1-3.14-.83,4.4,4.4,0,0,1,.3-5.43l-1.75-1.3L419.76,334l2.34,9.27a1.87,1.87,0,0,1-.53,1.64,1.6,1.6,0,0,1-2.3-.72l-1.5-6.76-2.3,3.95-.42,7-7,3.11-1.21-8.81,5.25-2.7,2.68-4.61-6.89-.21a1.93,1.93,0,0,1-1-2,1.73,1.73,0,0,1,1.92-1.53l7.43.42,3-4.78-1.87-1.38a6.77,6.77,0,0,1-3.8,1.27c-2.1,0-3.6-1.89-4.15-2.3" transform="translate(-157.22 -42.26)"/><polyline class="cls-5" points="268.81 285.26 268.71 285.18 261.47 279.81"/><path class="cls-5" d="M433.71,297.75,427.29,302l-.14,5.83h2.23c-.46-2.3.63-4.46,2.23-5" transform="translate(-157.22 -42.26)"/><path class="cls-5" d="M414.33,307.47a3.72,3.72,0,0,1,3.75-2.63,3.86,3.86,0,0,1,3.21,3h2.09v-5.2l-6.46-6.3a1.91,1.91,0,0,1-.1-2,1.44,1.44,0,0,1,2-.47l4.54,4.72v-4.72l-3.07-6.14,4.33-6.93" transform="translate(-157.22 -42.26)"/><line class="cls-5" x1="264.07" y1="269.66" x2="272.86" y2="269.66"/><path class="cls-5" d="M401,303.7l3.46,5.21,4.56,2-1.28-7.64a1.73,1.73,0,0,1,1.6-1.24,1.76,1.76,0,0,1,1.62,1.46l1.21,8.29,4.77,2.24.8-2.35a4.08,4.08,0,0,1-3.37-4.16" transform="translate(-157.22 -42.26)"/><line class="cls-5" x1="236.37" y1="264.65" x2="243.74" y2="261.44"/><path class="cls-5" d="M409.33,324.9c-.85-1.66-.33-2.56.73-3.9,1.23-1.56,3.08-2.12,4.74-.84l.75-2.2-4.3-1.86-7.53,4.55A1.44,1.44,0,0,1,402,320a1.9,1.9,0,0,1,.33-2.3l5.54-3.09-3.91-1.69-6.18,1-4.18-7" transform="translate(-157.22 -42.26)"/><line class="cls-5" x1="261.47" y1="279.81" x2="264.07" y2="269.66"/><path class="cls-7" d="M825.11,223.1c2.21,1.49,4.48,3.1,6.79,4.77,4.57,3.32,9.23,6.86,13.77,10.12,3.25,2.33,6.44,4.53,9.47,6.38,2.12,1.3,4.25,2.61,6.42,3.83,1.72,1,3.47,1.89,5.27,2.72s3.59,1.53,5.42,2.17a81.87,81.87,0,0,0,11.64,3c4.06.78,8.17,1.33,12.27,1.81q3.8.44,7.61.8,5.29.5,10.61.84a6.94,6.94,0,0,1,.15,1.7,5.62,5.62,0,0,0,1.26-1.61q3.6.22,7.2.36,3.81.15,7.64.23a3.47,3.47,0,0,1,.47,1,4,4,0,0,0,.56-1q5.91.1,11.83,0c2.13-1.28-17.69,12.94-31.39,18.51-18.2,7.39-38.1,9.21-57.62,11.3l-30.35,3.25-.35-.06a244.55,244.55,0,0,0-2.92,24.84v1.8H798.35l-.64-.68c-1.47-6.59-6.91-11.58-12.75-14.93-2-1.17-4.17-2.2-6.31-3.19a111.52,111.52,0,0,1-11.73-5.84c-12.26-7.54-15.73-23.26-15.5-37.95h.16a31.86,31.86,0,0,0,1.66,11.6c2.85,7.75,11.66,14,19.32,10.9a8.55,8.55,0,0,0,4.88-4.53,5.64,5.64,0,0,0-1.3-6.28,20.25,20.25,0,0,0-3.43-1.85,8.78,8.78,0,0,1-4.41-6.92,2.51,2.51,0,0,1,.38-1.79c.82-1,2.52-.53,3.49.36s1.76,2.11,3,2.46c2.69.75,4.53-3.26,3.3-5.77s-3.94-3.85-6.13-5.59a46.19,46.19,0,0,1-3.71-3.31h0c4.8-1.61,42.67-17.9,52.42-26.1C822.4,221.3,823.74,222.17,825.11,223.1Z" transform="translate(-157.22 -42.26)"/><path class="cls-1" d="M934.61,254.42c1.81-.29,9.57,4.13,8.88,5.82q-5.91.1-11.83,0C932.5,258.23,933.11,254.66,934.61,254.42Z" transform="translate(-157.22 -42.26)"/><path class="cls-8" d="M930.62,260.23h1a4,4,0,0,1-.56,1A3.47,3.47,0,0,0,930.62,260.23Z" transform="translate(-157.22 -42.26)"/><path class="cls-1" d="M923,260c1.44-2.65,6-2.2,7.64.23Q926.8,260.16,923,260Z" transform="translate(-157.22 -42.26)"/><path class="cls-1" d="M919.5,253.17c1,1.17,2.53,5.66,3.48,6.83q-3.6-.14-7.2-.36C917,257.51,918.1,254.25,919.5,253.17Z" transform="translate(-157.22 -42.26)"/><path class="cls-8" d="M914.37,259.55l1.41.09a5.62,5.62,0,0,1-1.26,1.61A6.94,6.94,0,0,0,914.37,259.55Z" transform="translate(-157.22 -42.26)"/><path class="cls-1" d="M910.23,252.17c1.81.51,3.6,4.6,4.14,7.38q-5.31-.33-10.61-.84l.08-.8C904.9,255.83,908,251.55,910.23,252.17Z" transform="translate(-157.22 -42.26)"/><path class="cls-1" d="M903.84,257.92l-.08.8q-3.81-.36-7.61-.8c2.34-2.34,2-2.51,4.38-4.84C902.55,255,903.16,255.22,903.84,257.92Z" transform="translate(-157.22 -42.26)"/><path class="cls-1" d="M891,253.08c2.42.52,6.11,2.53,5.2,4.84-4.1-.48-8.21-1-12.27-1.81C884,253.62,888.53,252.56,891,253.08Z" transform="translate(-157.22 -42.26)"/><path class="cls-1" d="M872.24,253.08c3.64-4.24,11.83-2.56,11.64,3A81.87,81.87,0,0,1,872.24,253.08Z" transform="translate(-157.22 -42.26)"/><path class="cls-1" d="M868.86,243.66c2.92,1.16,3.91,6.31,3.38,9.42-1.83-.64-3.64-1.35-5.42-2.17s-3.55-1.75-5.27-2.72a14.43,14.43,0,0,0,.53-2.44C863.48,244,866.78,242.84,868.86,243.66Z" transform="translate(-157.22 -42.26)"/><path class="cls-1" d="M860.77,238.9c1.63.74,1.7,4.17,1.32,6.85a2.56,2.56,0,0,0-.53,2.44c-2.17-1.22-4.29-2.53-6.42-3.83C856.36,242.26,858.55,237.9,860.77,238.9Z" transform="translate(-157.22 -42.26)"/><path class="cls-1" d="M852.29,235.37c2,.85,3.81,7,2.84,9-3-1.85-6.22-4.05-9.47-6.38l1.16-.22a4,4,0,0,0,.28-.58v0A4.34,4.34,0,0,1,852.29,235.37Z" transform="translate(-157.22 -42.26)"/><path class="cls-1" d="M845.69,230.88a5.75,5.75,0,0,1,1.43,6.28v0a3.74,3.74,0,0,0-.28.58l-1.16.22c-4.54-3.26-9.21-6.8-13.77-10.12l.43-.6a3.77,3.77,0,1,1,6.42,3.32A5.66,5.66,0,0,1,845.69,230.88Z" transform="translate(-157.22 -42.26)"/><path class="cls-1" d="M830.29,219.68a14.13,14.13,0,0,1,2,7.58l-.43.6c-2.3-1.67-4.57-3.28-6.79-4.77Z" transform="translate(-157.22 -42.26)"/><path class="cls-9" d="M801.81,168.16l.55.13a41.73,41.73,0,0,1,14.6,27,20.9,20.9,0,0,1-.58,8.87l1.09.07c1.47,4.54,4.95,8.31,5.88,13,.16.81-.68,1.93-2.27,3.26-9.76,8.21-47.63,24.49-52.42,26.1h0a16.54,16.54,0,0,1-3-3.76,38.56,38.56,0,0,1-12.43.55,90.67,90.67,0,0,0-1.64,13.92h-.16q0-2.14.16-4.24c-3.21,1.28-8.39,2.55-11.59,3.83h0c-5.5,1.88-11.08,3.81-16.9,4.36a29.1,29.1,0,0,1-5.57,0c-6.42-.61-12.74-3.4-16-9.27-4.64-8.46-2.62-20.56,0-29.39a11.87,11.87,0,0,1-7.53-4.66c-1.8-2.69-2-6.1-2-9.33A105.88,105.88,0,0,1,693,192.85l.12-.48a27.51,27.51,0,0,0,6.22.19c2.16-.1,4.41-.24,6.26-1.36s3.09-3.58,2.14-5.52a135.54,135.54,0,0,0,30.09-1.28c2.49-.39,5.14-.93,6.87-2.76,1.47-1.56,2.06-3.82,3.59-5.32,2.77-2.71,7.24-1.89,11.12-1.87s8.76-2.51,7.85-6.29c-.34-1.38-1.44-2.72-.95-4,.58-1.57,2.71-1.61,4.36-1.88a8.31,8.31,0,0,0,6.6-6.22,6.06,6.06,0,0,1,1-11.91c-1.29-1.66-.58-4,.9-5.42,11.05.59,19.86,10.78,22.27,21.66A18.29,18.29,0,0,1,801.81,168.16Z" transform="translate(-157.22 -42.26)"/><path class="cls-9" d="M820.84,319.89a82.24,82.24,0,0,1,2.26,26.77c-.15,2-.85,4.42-2.8,4.64l-4.83-10.91-2.17,10.17a3.74,3.74,0,0,1-1.15,2.36,3.66,3.66,0,0,1-1.8.51l-10.56,1.09c-3.88.39-8,.74-11.44-1.15s-5.31-7-2.64-9.82c1.23-1.31,3.05-1.83,4.68-2.6,7-3.32,10.48-12.72,7.25-19.82l.71-1.21h22.49Z" transform="translate(-157.22 -42.26)"/><path class="cls-7" d="M740,256.91h0c3.21-1.28,8.39-2.55,11.59-3.83q-.13,2.1-.16,4.24c-.23,14.69,3.24,30.41,15.5,37.95a111.52,111.52,0,0,0,11.73,5.84l-.29.62a30,30,0,0,0-11.43,19.9l-.44.95H766a127.67,127.67,0,0,0-19.2.87l-.11-.91c.76-6.79,1.38-14.18-2.26-19.95a30.57,30.57,0,0,0-5.86-6.25c-5.28-4.69-10.57-9.47-14.63-15.25s-6.83-12.73-6.45-19.79a29.1,29.1,0,0,0,5.57,0C728.91,260.72,734.49,258.79,740,256.91Z" transform="translate(-157.22 -42.26)"/><path class="cls-1" d="M778.5,255.5c1.23,2.51-.61,6.52-3.3,5.77-1.27-.35-2.06-1.57-3-2.46s-2.67-1.4-3.49-.36a2.51,2.51,0,0,0-.38,1.79,8.78,8.78,0,0,0,4.41,6.92,20.25,20.25,0,0,1,3.43,1.85,5.64,5.64,0,0,1,1.3,6.28,8.55,8.55,0,0,1-4.88,4.53c-7.66,3.05-16.47-3.14-19.32-10.9a31.86,31.86,0,0,1-1.66-11.6,90.67,90.67,0,0,1,1.64-13.92,38.56,38.56,0,0,0,12.43-.55,16.54,16.54,0,0,0,3,3.76,46.19,46.19,0,0,0,3.71,3.31C774.56,251.65,777.27,253,778.5,255.5Z" transform="translate(-157.22 -42.26)"/><path class="cls-9" d="M770.31,346.2a4.39,4.39,0,0,1-.25,3.34c-1.31,1.87-4.42.53-5.5-1.49s-1.27-4.52-2.81-6.2c1.39,3.83-1.2,8.19-4.74,10.16s-7.77,2.17-11.83,2.32l-8.61.31a3.61,3.61,0,0,1-4.58-3.77c-.63-3.78-.3-9,3.47-9.7,1.39-.25,2.8.32,4.21.34,3.41,0,6.1-3.32,6.59-6.7s-.64-6.79-1.75-10l.77-1.16,1.56-.19a127.67,127.67,0,0,1,19.2-.87l0,1Q768.16,334.88,770.31,346.2Z" transform="translate(-157.22 -42.26)"/><path class="cls-1" d="M749.16,99.11c.29,2.53-4.4,5.14-7.44,6.65-.54-4.1-1.06-8.21-1.73-12.14C742.88,94.25,748.82,96.16,749.16,99.11Z" transform="translate(-157.22 -42.26)"/><path class="cls-1" d="M746.2,82.95c1.28,3.37-3.89,7.92-6.21,10.67a67.06,67.06,0,0,0-2.69-11c-.18-.51-.37-1-.58-1.49l.87-.37a4.58,4.58,0,0,0,.45-.48C740.44,78.17,745,79.79,746.2,82.95Z" transform="translate(-157.22 -42.26)"/><path class="cls-7" d="M741.72,105.76c.31,2.36.64,4.72,1,7.06,1.08,6.63,2.57,13,5.39,18.19-3.69.87-3.81,6.5-5.7,9.81a7.16,7.16,0,0,1-2,2.73c-1.63,1-3.72.2-5.65.19a6.64,6.64,0,0,0-6.36,6.86c.09,1.19.46,2.54-.3,3.45s-2.14.77-3.31.78c-5.5,0-10.31,5.58-9.57,11.06a21,21,0,0,0-12.86,4.44l-.07-.1a92.76,92.76,0,0,0-.68-13.53,32.61,32.61,0,0,0-3-9.93c-3.55-7.14-11.73-12.66-19.37-10.43-2.87.84-6.41,2.51-8.43.3a4.25,4.25,0,0,1-.15-4.88c.89-1.51,2.31-4.78,3.74-5.78-6.95.29-14,.57-20.77-1s-13.33-5.39-16.75-11.48c-2.11-3.75-2.89-8.1-3.23-12.39-1.22-15.51,4-32.53,16.88-41.11a44.05,44.05,0,0,1,15.87-6.13,129.9,129.9,0,0,1,13.36-1.78c9.59-.9,19.81-1.51,28.31,3.05,1.52.81,3,1.65,4.55,2.51,6.69,3.84,13.16,8.28,18,13.91l-.08.1.11-.06a35,35,0,0,1,6,9.59c.2.49.4,1,.58,1.49a67.06,67.06,0,0,1,2.69,11C740.67,97.55,741.18,101.66,741.72,105.76Z" transform="translate(-157.22 -42.26)"/><path class="cls-1" d="M738.24,73a6.05,6.05,0,0,1-.2,7.28,3.58,3.58,0,0,0-.45.48l-.87.37a35,35,0,0,0-6-9.59A6,6,0,0,1,738.24,73Z" transform="translate(-157.22 -42.26)"/><path class="cls-1" d="M732.49,63.2c1.25,2.73.13,6-1.81,8.33-4.87-5.63-11.34-10.07-18-13.91l1.65-.91c2.46-.79,5.1-1.59,7.58-.86s4.45,3.7,3.2,6C726.87,59.36,731.23,60.44,732.49,63.2Z" transform="translate(-157.22 -42.26)"/><path class="cls-1" d="M713.76,50.36c2,1.4,2.55,4.89.55,6.35l-1.65.91c-1.51-.86-3-1.7-4.55-2.51-8.5-4.56-18.72-4-28.31-3.05a129.9,129.9,0,0,0-13.36,1.78l-.13-1.65a4.91,4.91,0,1,1,9.35-3c1.3-2,3-3.87,5.31-4.45s5.14.75,5.46,3.1c.3-2.76,2.8-5.26,5.55-5.07s4.93,3.55,3.61,6c1.84-2.07,4.28-4,7-3.87s5.38,3.2,4.07,5.66C708.87,49.32,711.71,49,713.76,50.36Z" transform="translate(-157.22 -42.26)"/><path class="cls-10" d="M695.84,178.67a20.72,20.72,0,0,1,6.51-8.33,21,21,0,0,1,12.86-4.44c-.73-5.48,4.07-11,9.57-11.06,1.18,0,2.55.12,3.31-.78s.39-2.27.3-3.45a6.64,6.64,0,0,1,6.36-6.86c1.92,0,4,.84,5.65-.19a7.16,7.16,0,0,0,2-2.73c1.89-3.3,2-8.94,5.7-9.81,1-.23,5.27,2.78,6,2.08,2.27-2.15-.28-7.46,2.68-8.45" transform="translate(-157.22 -42.26)"/><path class="cls-10" d="M744.15,112.63c2.92-3.35,6-6.81,10.17-8.33s9.67-.28,11.43,3.79c.73,1.7.78,3.73,2,5.15,3.69,4.45,13.53-1.56,15.75,3.78a4.73,4.73,0,0,0-3.7,5.82c2.76-1.14,5.27,3,4,5.72s-4.4,3.94-7.22,4.91l6.58,4.24a3.64,3.64,0,0,0-3.84,1c-1.48,1.4-2.19,3.76-.9,5.42a6.06,6.06,0,0,0-1,11.91,8.31,8.31,0,0,1-6.6,6.22c-1.64.27-3.78.3-4.36,1.88-.49,1.33.61,2.67.95,4,.9,3.78-4,6.31-7.85,6.29s-8.35-.84-11.12,1.87c-1.53,1.5-2.11,3.76-3.59,5.32-1.73,1.83-4.39,2.38-6.87,2.76a135.54,135.54,0,0,1-30.09,1.28c.95,1.94-.29,4.39-2.14,5.52s-4.1,1.26-6.26,1.36a27.51,27.51,0,0,1-6.22-.19,9.61,9.61,0,0,1-4.05-1.64c-2.87-2.09-3.59-7.27-.45-8.93l-4.79-.7c3.08-9.45,8.86-20,17.74-24.39l.68-.32" transform="translate(-157.22 -42.26)"/><path class="cls-5" d="M666.3,52.19a4.91,4.91,0,1,1,9.35-3c1.3-2,3-3.87,5.31-4.45s5.14.75,5.46,3.1c.3-2.76,2.8-5.26,5.55-5.07s4.93,3.55,3.61,6c1.84-2.07,4.28-4,7-3.87s5.38,3.2,4.07,5.66c2.16-1.23,5-1.58,7.05-.18s2.55,4.89.55,6.35c2.46-.79,5.1-1.59,7.58-.86s4.45,3.7,3.2,6c1.79-2.46,6.15-1.38,7.41,1.38s.13,6-1.81,8.33l-.08.1.11-.06A6,6,0,0,1,738.24,73a6.05,6.05,0,0,1-.2,7.28,4.58,4.58,0,0,1-.45.48,3.58,3.58,0,0,1,.45-.48c2.4-2.15,7-.52,8.16,2.64,1.28,3.37-3.89,7.92-6.21,10.67,2.89.64,8.83,2.54,9.17,5.49.29,2.53-4.4,5.14-7.44,6.65l-1.35.66" transform="translate(-157.22 -42.26)"/><path class="cls-11" d="M693,192.85A105.88,105.88,0,0,0,692,208.61c0,3.23.25,6.64,2,9.33a11.87,11.87,0,0,0,7.53,4.66,28.5,28.5,0,0,0,6.2.67,67.42,67.42,0,0,0,31-7.2" transform="translate(-157.22 -42.26)"/><path class="cls-12" d="M701.63,222.32l-.08.28c-2.62,8.83-4.63,20.93,0,29.39,3.23,5.87,9.54,8.66,16,9.27a29.1,29.1,0,0,0,5.57,0c5.82-.55,11.4-2.48,16.9-4.36l.38-.13" transform="translate(-157.22 -42.26)"/><path class="cls-13" d="M778.92,138.66l.34,0c11.05.59,19.86,10.78,22.27,21.66a18.29,18.29,0,0,1,.28,7.82,10.92,10.92,0,0,1-.39,1.35c-1.27,3.56-4.3,6.13-7.2,8.54l-7.82,6.49" transform="translate(-157.22 -42.26)"/><path class="cls-14" d="M802.36,168.28a41.73,41.73,0,0,1,14.6,27,20.9,20.9,0,0,1-.58,8.87,12.54,12.54,0,0,1-1,2.3c-3.28,5.78-10.58,7.6-16,11.48" transform="translate(-157.22 -42.26)"/><path class="cls-15" d="M817.48,204.24c1.47,4.54,4.95,8.31,5.88,13,.16.81-.68,1.93-2.27,3.26-9.76,8.21-47.63,24.49-52.42,26.1" transform="translate(-157.22 -42.26)"/><path class="cls-5" d="M753.23,243.39a38.56,38.56,0,0,0,12.43-.55" transform="translate(-157.22 -42.26)"/><path class="cls-5" d="M753.23,243.39a90.67,90.67,0,0,0-1.64,13.92,31.86,31.86,0,0,0,1.66,11.6c2.85,7.75,11.66,14,19.32,10.9a8.55,8.55,0,0,0,4.88-4.53,5.64,5.64,0,0,0-1.3-6.28,20.25,20.25,0,0,0-3.43-1.85,8.78,8.78,0,0,1-4.41-6.92,2.51,2.51,0,0,1,.38-1.79c.82-1,2.52-.53,3.49.36s1.76,2.11,3,2.46c2.69.75,4.53-3.26,3.3-5.77s-3.94-3.85-6.13-5.59a46.19,46.19,0,0,1-3.71-3.31,16.54,16.54,0,0,1-3-3.76" transform="translate(-157.22 -42.26)"/><path class="cls-16" d="M740,256.91c3.21-1.28,8.39-2.55,11.59-3.83" transform="translate(-157.22 -42.26)"/><path class="cls-17" d="M751.58,253.08q-.13,2.1-.16,4.24c-.23,14.69,3.24,30.41,15.5,37.95a111.52,111.52,0,0,0,11.73,5.84c2.14,1,4.26,2,6.31,3.19,5.84,3.35,11.28,8.34,12.75,14.93" transform="translate(-157.22 -42.26)"/><path class="cls-18" d="M766.93,321.62a30,30,0,0,1,11.43-19.9" transform="translate(-157.22 -42.26)"/><path class="cls-19" d="M820.85,318.09a244.55,244.55,0,0,1,2.92-24.84q1.11-6.63,2.6-13.2" transform="translate(-157.22 -42.26)"/><path class="cls-5" d="M847.12,237.16a4.34,4.34,0,0,1,5.18-1.79c2,.85,3.81,7,2.84,9,1.23-2.11,3.41-6.46,5.63-5.46,1.63.74,1.7,4.17,1.32,6.85a14.43,14.43,0,0,1-.53,2.44,2.56,2.56,0,0,1,.53-2.44c1.4-1.78,4.7-2.91,6.77-2.09,2.92,1.16,3.91,6.31,3.38,9.42,3.64-4.24,11.83-2.56,11.64,3,.11-2.48,4.65-3.55,7.07-3s6.11,2.53,5.2,4.84c2.34-2.34,2-2.51,4.38-4.84,2,1.91,2.64,2.14,3.31,4.84,1.06-2.08,4.15-6.37,6.39-5.74,1.81.51,3.6,4.6,4.14,7.38a6.94,6.94,0,0,1,.15,1.7,5.62,5.62,0,0,0,1.26-1.61c1.25-2.13,2.32-5.39,3.72-6.47,1,1.17,2.53,5.66,3.48,6.83,1.44-2.65,6-2.2,7.64.23a3.47,3.47,0,0,1,.47,1,4,4,0,0,0,.56-1c.84-2,1.45-5.59,2.95-5.82,1.81-.29,9.57,4.13,8.88,5.82" transform="translate(-157.22 -42.26)"/><path class="cls-5" d="M847.1,237.18a4,4,0,0,1-.28.58,3.74,3.74,0,0,1,.28-.58" transform="translate(-157.22 -42.26)"/><path class="cls-5" d="M847.1,237.18v0" transform="translate(-157.22 -42.26)"/><path class="cls-5" d="M824,223.85l1.14-.76,5.19-3.41a14.13,14.13,0,0,1,2,7.58,3.77,3.77,0,1,1,6.42,3.32,5.66,5.66,0,0,1,6.94.3,5.75,5.75,0,0,1,1.43,6.28" transform="translate(-157.22 -42.26)"/><ellipse class="cls-20" cx="534.75" cy="40.35" rx="5.08" ry="5.11"/></svg>